<svg width="15" height="14" viewBox="0 0 15 14" fill="none" xmlns="http://www.w3.org/2000/svg">
<path d="M5.52972 12.5375C5.55366 12.5589 5.5839 12.5718 5.61585 12.5743C5.6478 12.5769 5.67971 12.5689 5.70673 12.5517C5.73375 12.5344 5.75439 12.5088 5.76552 12.4788C5.77666 12.4487 5.77767 12.4158 5.76841 12.3851L3.87692 5.90015C3.85977 5.84114 3.82497 5.78879 3.7772 5.75014C3.72944 5.71149 3.67099 5.68839 3.60971 5.68393C3.30347 5.66141 2.99798 5.63664 2.69249 5.60886L0.163 5.37838C0.136259 5.37578 0.109312 5.38048 0.0850281 5.39198C0.060744 5.40347 0.0400305 5.42134 0.0250914 5.44368C0.0101523 5.46601 0.00154657 5.49198 0.000189681 5.51882C-0.00116721 5.54566 0.00477549 5.57237 0.0173856 5.5961C1.38571 8.15616 3.35601 10.5961 5.52972 12.5375ZM7.38518 13.9084C7.40019 13.961 7.44523 14 7.50002 14C7.52649 13.9992 7.552 13.9899 7.57271 13.9734C7.59342 13.9568 7.60821 13.9341 7.61486 13.9084L9.92968 5.97072C9.93657 5.94768 9.93782 5.92331 9.93333 5.89968C9.92883 5.87605 9.91873 5.85385 9.90387 5.83494C9.88901 5.81603 9.86983 5.80097 9.84793 5.79102C9.82604 5.78107 9.80208 5.77653 9.77806 5.77778C8.26007 5.84293 6.73997 5.84293 5.22198 5.77778C5.19805 5.77657 5.17418 5.78111 5.15236 5.79102C5.13054 5.80093 5.11141 5.81591 5.09657 5.83473C5.08173 5.85354 5.0716 5.87564 5.06704 5.89917C5.06248 5.92269 5.06362 5.94697 5.07036 5.96997L7.38518 13.9084ZM9.23163 12.3851C9.1896 12.5278 9.35923 12.6366 9.47032 12.5375C11.644 10.5953 13.6143 8.15616 14.9827 5.5961C14.9952 5.57243 15.0011 5.5458 14.9998 5.51903C14.9985 5.49227 14.99 5.46636 14.9751 5.44405C14.9603 5.42174 14.9397 5.40386 14.9155 5.3923C14.8913 5.38074 14.8645 5.37593 14.8378 5.37838L12.3083 5.60886C12.0021 5.63664 11.6966 5.66141 11.3903 5.68393C11.3291 5.68839 11.2706 5.71149 11.2228 5.75014C11.1751 5.78879 11.1403 5.84114 11.1231 5.90015L9.23163 12.3851ZM14.8566 4.24625C14.8827 4.24395 14.9078 4.23482 14.9294 4.21977C14.9509 4.20473 14.9681 4.18429 14.9793 4.1605C14.9905 4.13671 14.9952 4.11041 14.993 4.08422C14.9908 4.05803 14.9818 4.03288 14.9669 4.01126L12.5365 0.486487C12.4329 0.336376 12.2944 0.213674 12.133 0.128932C11.9715 0.0441906 11.7919 -5.49309e-05 11.6095 6.51485e-07H9.74053C9.71588 3.18298e-07 9.69161 0.00607159 9.66986 0.0176782C9.64811 0.0292848 9.62956 0.0460694 9.61583 0.0665499C9.60211 0.0870303 9.59364 0.110576 9.59117 0.135108C9.5887 0.159639 9.59231 0.184402 9.60167 0.207208L11.2958 4.3536C11.3198 4.41226 11.3618 4.46178 11.4158 4.49509C11.4697 4.5284 11.5328 4.54379 11.596 4.53904C11.7987 4.52327 12.0028 4.50601 12.2062 4.48649L14.8566 4.24625ZM8.37446 0.184685C8.3516 0.12989 8.31302 0.0830995 8.26359 0.0502275C8.21416 0.0173555 8.1561 -0.000122992 8.09674 6.51485e-07H6.9033C6.84394 -0.000122992 6.78588 0.0173555 6.73645 0.0502275C6.68702 0.0830995 6.64844 0.12989 6.62558 0.184685L4.85569 4.43243C4.84653 4.45466 4.84283 4.47877 4.84492 4.50272C4.84701 4.52667 4.85482 4.54977 4.86769 4.57008C4.88056 4.59038 4.89812 4.6073 4.91889 4.61941C4.93966 4.63151 4.96304 4.63845 4.98704 4.63964C6.66086 4.72072 8.33918 4.72072 10.0137 4.63964C10.0377 4.63834 10.061 4.63131 10.0816 4.61916C10.1023 4.60701 10.1198 4.59008 10.1326 4.56979C10.1454 4.5495 10.1531 4.52644 10.1552 4.50254C10.1572 4.47864 10.1535 4.4546 10.1443 4.43243L8.37446 0.184685ZM5.39837 0.207208C5.40773 0.184402 5.41134 0.159639 5.40887 0.135108C5.4064 0.110576 5.39793 0.0870303 5.38421 0.0665499C5.37048 0.0460694 5.35193 0.0292848 5.33018 0.0176782C5.30843 0.00607159 5.28416 3.18298e-07 5.25951 6.51485e-07H3.39054C3.20819 -5.49309e-05 3.02855 0.0441906 2.86708 0.128932C2.70561 0.213674 2.56713 0.336376 2.46356 0.486487L0.0331481 4.01126C0.0182027 4.03288 0.00919052 4.05803 0.00701215 4.08422C0.00483377 4.11041 0.00956555 4.13671 0.0207346 4.1605C0.0319036 4.18429 0.0491187 4.20473 0.0706593 4.21977C0.0922 4.23482 0.117312 4.24395 0.143485 4.24625L2.79382 4.48649C2.99723 4.50601 3.20064 4.52327 3.40405 4.53904C3.46728 4.5439 3.53042 4.52857 3.58437 4.49524C3.63833 4.46192 3.68031 4.41232 3.70428 4.3536L5.39837 0.207208Z" fill="#38FB55"/>
</svg>
