<svg width="18" height="20" viewBox="0 0 18 20" fill="none" xmlns="http://www.w3.org/2000/svg">
<path d="M9 0C11.3869 0 13.6761 0.903059 15.364 2.51051C17.0518 4.11797 18 6.29814 18 8.57143C18 12.12 15.16 15.8381 9.6 19.8095C9.4269 19.9332 9.21637 20 9 20C8.78363 20 8.5731 19.9332 8.4 19.8095C2.84 15.8381 0 12.12 0 8.57143C0 6.29814 0.948211 4.11797 2.63604 2.51051C4.32387 0.903059 6.61305 0 9 0ZM9 5.71429C8.20435 5.71429 7.44129 6.01531 6.87868 6.55112C6.31607 7.08694 6 7.81367 6 8.57143C6 9.32919 6.31607 10.0559 6.87868 10.5917C7.44129 11.1276 8.20435 11.4286 9 11.4286C9.79565 11.4286 10.5587 11.1276 11.1213 10.5917C11.6839 10.0559 12 9.32919 12 8.57143C12 7.81367 11.6839 7.08694 11.1213 6.55112C10.5587 6.01531 9.79565 5.71429 9 5.71429Z" fill="#958DB1"/>
</svg>
