<svg width="27" height="22" viewBox="0 0 27 22" fill="none" xmlns="http://www.w3.org/2000/svg">
<path d="M13.3466 20.3479C13.4489 20.3479 13.5665 20.325 13.6994 20.2791C13.8324 20.2332 13.9398 20.1735 14.0216 20.1001L24.3614 10.7935C24.6273 10.5549 24.8267 10.2826 24.9597 9.97663C25.0926 9.6707 25.1591 9.36477 25.1591 9.05882C25.1591 8.74677 25.0926 8.43471 24.9597 8.12265C24.8267 7.8106 24.6273 7.53525 24.3614 7.29662L18.8386 2.34043C18.5727 2.10179 18.2659 1.92282 17.9182 1.8035C17.5705 1.68419 17.2227 1.62453 16.875 1.62453C16.5341 1.62453 16.1932 1.68419 15.8523 1.8035C15.5114 1.92282 15.208 2.10179 14.942 2.34043L14.3898 2.83605L16.875 5.09387C17.1409 5.35086 17.3761 5.64914 17.5807 5.98874C17.7852 6.32833 17.8875 6.70004 17.8875 7.10388C17.8875 7.80142 17.5858 8.41635 16.9824 8.94869C16.379 9.48102 15.6886 9.74718 14.9114 9.74718C14.4 9.74718 13.9756 9.67835 13.6381 9.54068C13.3006 9.403 12.9919 9.20713 12.7119 8.95306L10.4625 6.93867L4.90909 11.9224C4.80682 12.0142 4.73523 12.1108 4.69432 12.2122C4.65341 12.3137 4.63295 12.4224 4.63295 12.5383C4.63295 12.7702 4.71989 12.9641 4.89375 13.1201C5.06761 13.2762 5.28409 13.3542 5.54319 13.3542C5.67273 13.3542 5.79375 13.3267 5.90625 13.2716C6.01875 13.2165 6.11591 13.1523 6.19773 13.0788L10.4318 9.2791L11.7205 10.4355L7.51705 14.2078C7.41477 14.2995 7.34318 14.4005 7.30227 14.5106C7.26136 14.6208 7.24091 14.7309 7.24091 14.8411C7.24091 15.0613 7.33295 15.2541 7.51705 15.4193C7.70114 15.5845 7.91591 15.6671 8.16136 15.6671C8.28409 15.6671 8.4017 15.6441 8.5142 15.5982C8.62671 15.5524 8.72386 15.4927 8.80568 15.4193L13.0398 11.6195L14.3284 12.776L10.125 16.5482C10.0432 16.6216 9.9767 16.7164 9.92557 16.8327C9.87443 16.949 9.84886 17.0652 9.84886 17.1815C9.84886 17.4018 9.94091 17.5945 10.125 17.7597C10.3091 17.9249 10.5239 18.0075 10.7693 18.0075C10.892 18.0075 11.0045 17.9892 11.1068 17.9524C11.2091 17.9157 11.3114 17.8515 11.4136 17.7597L15.6477 13.9599L16.9364 15.1164L12.7023 18.9161C12.6 19.0079 12.5284 19.1089 12.4875 19.219C12.4466 19.3292 12.4261 19.4301 12.4261 19.5219C12.4261 19.7789 12.508 19.9808 12.6716 20.1277C12.8352 20.2745 13.0602 20.3479 13.3466 20.3479ZM13.3486 22C12.6722 22 12.0682 21.7751 11.5364 21.3254C11.0045 20.8757 10.6875 20.3193 10.5852 19.6563C9.88977 19.5667 9.30682 19.3108 8.83636 18.8886C8.36591 18.4664 8.07955 17.9433 7.97727 17.3191C7.28182 17.2274 6.70398 16.9658 6.24375 16.5344C5.78352 16.103 5.50227 15.5845 5.4 14.9787C4.64318 14.8869 4.01932 14.6116 3.52841 14.1527C3.0375 13.6938 2.79205 13.1431 2.79205 12.5006C2.79205 12.1886 2.86081 11.8761 2.99835 11.5631C3.13589 11.2501 3.33303 10.9753 3.58977 10.7384L10.4625 4.57071L13.8375 7.5995C14.0011 7.74635 14.1784 7.86108 14.3693 7.94368C14.5602 8.02628 14.7511 8.06758 14.942 8.06758C15.208 8.06758 15.4585 7.96204 15.6938 7.75094C15.929 7.53984 16.0466 7.31356 16.0466 7.07211C16.0466 6.96479 16.0108 6.8423 15.9392 6.70463C15.8676 6.56696 15.75 6.4247 15.5864 6.27785L11.1989 2.34043C10.933 2.10179 10.6261 1.92282 10.2784 1.8035C9.93068 1.68419 9.58295 1.62453 9.23523 1.62453C8.89431 1.62453 8.55341 1.68419 8.21251 1.8035C7.87159 1.92282 7.56879 2.10048 7.30408 2.33649L2.63864 6.52566C2.35227 6.78264 2.15284 7.0534 2.04034 7.33792C1.92784 7.62244 1.86136 7.94368 1.84091 8.30163C1.82045 8.65957 1.89716 9.00834 2.07102 9.34793C2.24489 9.68753 2.45455 9.99499 2.7 10.2703L1.38068 11.4543C0.971591 11.0505 0.639205 10.564 0.383523 9.99499C0.127841 9.42595 0 8.84773 0 8.26033C0 7.70964 0.117614 7.18189 0.352841 6.6771C0.588068 6.1723 0.920455 5.72716 1.35 5.34168L5.98295 1.18398C6.43295 0.780142 6.9422 0.481852 7.51069 0.289111C8.07921 0.0963705 8.66216 0 9.25956 0C9.85697 0 10.4369 0.0963705 10.9994 0.289111C11.5619 0.481852 12.0682 0.780142 12.5182 1.18398L13.0705 1.6796L13.6227 1.18398C14.0727 0.780142 14.582 0.481852 15.1505 0.289111C15.719 0.0963705 16.3019 0 16.8993 0C17.4967 0 18.0767 0.0963705 18.6392 0.289111C19.2017 0.481852 19.708 0.780142 20.158 1.18398L25.65 6.11264C26.1 6.51648 26.4375 6.97569 26.6625 7.49027C26.8875 8.00485 27 8.52801 27 9.05973C27 9.59146 26.8875 10.1097 26.6625 10.6145C26.4375 11.1193 26.1 11.5736 25.65 11.9775L15.3102 21.2566C15.0443 21.4952 14.7423 21.6788 14.4041 21.8073C14.066 21.9358 13.7141 22 13.3486 22Z" fill="#FFB800"/>
</svg>
