<svg width="30" height="29" viewBox="0 0 30 29" fill="none" xmlns="http://www.w3.org/2000/svg">
<path d="M15.0421 8.44434V27.7973M1.08398 9.93302C1.08398 9.5382 1.24738 9.15955 1.53823 8.88036C1.82909 8.60118 2.22356 8.44434 2.63489 8.44434H27.4494C27.8607 8.44434 28.2552 8.60118 28.5461 8.88036C28.8369 9.15955 29.0003 9.5382 29.0003 9.93302V12.9104C29.0003 13.3052 28.8369 13.6839 28.5461 13.9631C28.2552 14.2422 27.8607 14.3991 27.4494 14.3991H2.63489C2.22356 14.3991 1.82909 14.2422 1.53823 13.9631C1.24738 13.6839 1.08398 13.3052 1.08398 12.9104V9.93302Z" stroke="#FFB800" stroke-linecap="round" stroke-linejoin="round"/>
<path d="M25.8973 14.3989V24.8197C25.8973 25.6093 25.5705 26.3666 24.9888 26.925C24.4071 27.4834 23.6181 27.797 22.7954 27.797H7.28638C6.46373 27.797 5.67477 27.4834 5.09307 26.925C4.51137 26.3666 4.18457 25.6093 4.18457 24.8197V14.3989M8.06184 8.44409C7.03352 8.44409 6.04732 8.05199 5.3202 7.35403C4.59307 6.65607 4.18457 5.70943 4.18457 4.72237C4.18457 3.73531 4.59307 2.78868 5.3202 2.09072C6.04732 1.39276 7.03352 1.00065 8.06184 1.00065C9.55797 0.97563 11.0241 1.67244 12.269 3.0002C13.514 4.32796 14.4799 6.22506 15.0409 8.44409C15.6019 6.22506 16.5679 4.32796 17.8128 3.0002C19.0577 1.67244 20.5239 0.97563 22.02 1.00065C23.0483 1.00065 24.0345 1.39276 24.7616 2.09072C25.4888 2.78868 25.8973 3.73531 25.8973 4.72237C25.8973 5.70943 25.4888 6.65607 24.7616 7.35403C24.0345 8.05199 23.0483 8.44409 22.02 8.44409" stroke="#FFB800" stroke-linecap="round" stroke-linejoin="round"/>
</svg>
