<svg width="18" height="18" viewBox="0 0 18 18" fill="none" xmlns="http://www.w3.org/2000/svg">
<path fill-rule="evenodd" clip-rule="evenodd" d="M9.00041 10.9859C9.00041 10.1902 9.31648 9.42715 9.87909 8.86454C10.4417 8.30193 11.2048 7.98586 12.0004 7.98586H16.0004C16.5308 7.98586 17.0395 8.19657 17.4146 8.57164C17.7897 8.94672 18.0004 9.45542 18.0004 9.98586V11.9859C18.0004 12.5163 17.7897 13.025 17.4146 13.4001C17.0395 13.7751 16.5308 13.9859 16.0004 13.9859H12.0004C11.2048 13.9859 10.4417 13.6698 9.87909 13.1072C9.31648 12.5446 9.00041 11.7815 9.00041 10.9859ZM12.0004 9.98586C11.7352 9.98586 11.4808 10.0912 11.2933 10.2788C11.1058 10.4663 11.0004 10.7206 11.0004 10.9859C11.0004 11.2511 11.1058 11.5054 11.2933 11.693C11.4808 11.8805 11.7352 11.9859 12.0004 11.9859H16.0004V9.98586H12.0004Z" fill="#9450E0"/>
<path fill-rule="evenodd" clip-rule="evenodd" d="M9.30041 0.285857C9.48734 0.10263 9.73865 0 10.0004 0C10.2622 0 10.5135 0.10263 10.7004 0.285857L13.4004 2.98586H10.6004L9.30041 1.68586C9.11718 1.49893 9.01455 1.24761 9.01455 0.985857C9.01455 0.724105 9.11718 0.472786 9.30041 0.285857ZM9.40041 2.98586L6.70041 0.285857C6.51348 0.10263 6.26216 0 6.00041 0C5.73865 0 5.48734 0.10263 5.30041 0.285857L2.60041 2.98586H9.40041ZM1.60041 3.98586C1.14186 4.07936 0.730612 4.33071 0.438263 4.69614C0.145913 5.06158 -0.00902898 5.51796 0.000406878 5.98586V15.9859C0.000406878 17.0859 0.900407 17.9859 2.00041 17.9859H14.0004C14.5308 17.9859 15.0395 17.7751 15.4146 17.4001C15.7897 17.025 16.0004 16.5163 16.0004 15.9859H12.0004C10.6743 15.9859 9.40256 15.4591 8.46487 14.5214C7.52719 13.5837 7.00041 12.3119 7.00041 10.9859C7.00041 9.65977 7.52719 8.38801 8.46487 7.45032C9.40256 6.51264 10.6743 5.98586 12.0004 5.98586H16.0004C16.0148 5.53167 15.8741 5.08614 15.6014 4.72261C15.3288 4.35908 14.9404 4.09923 14.5004 3.98586H1.50041H1.60041Z" fill="#9450E0"/>
</svg>
