<svg width="23" height="24" viewBox="0 0 23 24" fill="none" xmlns="http://www.w3.org/2000/svg">
<path d="M0 6.05607V4.82243C0 3.93591 0.211332 3.12951 0.633997 2.4032C1.05666 1.6769 1.66131 1.09479 2.44793 0.656876C3.23456 0.218958 4.16794 0 5.24809 0C6.35171 0 7.29097 0.218958 8.06585 0.656876C8.85248 1.09479 9.45712 1.6769 9.87979 2.4032C10.3025 3.12951 10.5138 3.93591 10.5138 4.82243V6.05607C10.5138 6.92123 10.3025 7.71696 9.87979 8.44326C9.46886 9.16956 8.87009 9.75167 8.08346 10.1896C7.30858 10.6275 6.37519 10.8465 5.28331 10.8465C4.19142 10.8465 3.2463 10.6275 2.44793 10.1896C1.66131 9.75167 1.05666 9.16956 0.633997 8.44326C0.211332 7.71696 0 6.92123 0 6.05607ZM2.44793 4.82243V6.05607C2.44793 6.5474 2.54773 7.01202 2.74732 7.44993C2.95865 7.88785 3.27565 8.24566 3.69832 8.52336C4.12098 8.79039 4.64931 8.9239 5.28331 8.9239C5.9173 8.9239 6.43977 8.79039 6.85069 8.52336C7.26161 8.24566 7.56687 7.88785 7.76646 7.44993C7.96605 7.01202 8.06585 6.5474 8.06585 6.05607V4.82243C8.06585 4.32043 7.96018 3.85047 7.74885 3.41255C7.54926 2.96395 7.23813 2.60614 6.81547 2.33912C6.40454 2.06141 5.88208 1.92256 5.24809 1.92256C4.62583 1.92256 4.10337 2.06141 3.6807 2.33912C3.26978 2.60614 2.95865 2.96395 2.74732 3.41255C2.54773 3.85047 2.44793 4.32043 2.44793 4.82243ZM12.4862 19.1936V17.9439C12.4862 17.0681 12.6975 16.267 13.1202 15.5407C13.5429 14.8144 14.1475 14.2323 14.9341 13.7944C15.7208 13.3565 16.6542 13.1375 17.7343 13.1375C18.8379 13.1375 19.7772 13.3565 20.5521 13.7944C21.3387 14.2323 21.9433 14.8144 22.366 15.5407C22.7887 16.267 23 17.0681 23 17.9439V19.1936C23 20.0694 22.7887 20.8705 22.366 21.5968C21.9551 22.3231 21.3563 22.9052 20.5697 23.3431C19.7948 23.781 18.8614 24 17.7695 24C16.6776 24 15.7384 23.781 14.9518 23.3431C14.1651 22.9052 13.5546 22.3231 13.1202 21.5968C12.6975 20.8705 12.4862 20.0694 12.4862 19.1936ZM14.9341 17.9439V19.1936C14.9341 19.6849 15.0339 20.1549 15.2335 20.6035C15.4449 21.0414 15.7619 21.3992 16.1845 21.6769C16.6072 21.9439 17.1355 22.0774 17.7695 22.0774C18.4035 22.0774 18.926 21.9439 19.3369 21.6769C19.7596 21.3992 20.0707 21.0414 20.2703 20.6035C20.4699 20.1656 20.5697 19.6956 20.5697 19.1936V17.9439C20.5697 17.4419 20.464 16.972 20.2527 16.534C20.0531 16.0961 19.742 15.7437 19.3193 15.4766C18.9084 15.1989 18.38 15.0601 17.7343 15.0601C17.112 15.0601 16.5896 15.1989 16.1669 15.4766C15.756 15.7437 15.4449 16.0961 15.2335 16.534C15.0339 16.972 14.9341 17.4419 14.9341 17.9439ZM18.5444 3.65287L6.02297 21.8852L4.19142 20.8278L16.7129 2.59546L18.5444 3.65287Z" fill="#FFB800"/>
</svg>
