<svg width="23" height="18" viewBox="0 0 23 18" fill="none" xmlns="http://www.w3.org/2000/svg">
<path d="M0 15.1364C0 15.8958 0.302901 16.6242 0.842068 17.1613C1.38124 17.6983 2.1125 18 2.875 18H20.125C20.8875 18 21.6188 17.6983 22.1579 17.1613C22.6971 16.6242 23 15.8958 23 15.1364V7.26136H0V15.1364ZM3.38839 11.25C3.38839 10.8431 3.55066 10.4529 3.8395 10.1652C4.12834 9.87754 4.52009 9.71591 4.92857 9.71591H7.39286C7.80134 9.71591 8.19309 9.87754 8.48193 10.1652C8.77077 10.4529 8.93304 10.8431 8.93304 11.25V12.2727C8.93304 12.6796 8.77077 13.0698 8.48193 13.3575C8.19309 13.6452 7.80134 13.8068 7.39286 13.8068H4.92857C4.52009 13.8068 4.12834 13.6452 3.8395 13.3575C3.55066 13.0698 3.38839 12.6796 3.38839 12.2727V11.25ZM20.125 0H2.875C2.1125 0 1.38124 0.301704 0.842068 0.83874C0.302901 1.37578 0 2.10415 0 2.86364V4.19318H23V2.86364C23 2.10415 22.6971 1.37578 22.1579 0.83874C21.6188 0.301704 20.8875 0 20.125 0Z" fill="#958DB1"/>
</svg>
