<svg width="22" height="32" viewBox="0 0 22 32" fill="none" xmlns="http://www.w3.org/2000/svg">
<path d="M2.0625 10.8952H15.4688V7.2381C15.4688 5.86243 15.0347 4.69312 14.1666 3.73017C13.2984 2.7672 12.2442 2.28571 11.0041 2.28571C9.76385 2.28571 8.70833 2.7672 7.8375 3.73017C6.96667 4.69312 6.53125 5.86243 6.53125 7.2381H4.46875C4.46875 5.23175 5.1059 3.52381 6.38021 2.11429C7.65451 0.704762 9.19566 0 11.0036 0C12.8116 0 14.3516 0.705715 15.6234 2.11714C16.8953 3.52857 17.5312 5.23556 17.5312 7.2381V10.8952H19.9375C20.5047 10.8952 20.9902 11.119 21.3941 11.5667C21.798 12.0143 22 12.5524 22 13.181V29.7143C22 30.3429 21.798 30.881 21.3941 31.3286C20.9902 31.7762 20.5047 32 19.9375 32H2.0625C1.49531 32 1.00977 31.7762 0.605859 31.3286C0.201953 30.881 0 30.3429 0 29.7143V13.181C0 12.5524 0.201953 12.0143 0.605859 11.5667C1.00977 11.119 1.49531 10.8952 2.0625 10.8952ZM2.0625 29.7143H19.9375V13.181H2.0625V29.7143ZM11.0058 24.381C11.7353 24.381 12.3578 24.1012 12.8734 23.5417C13.3891 22.9822 13.6469 22.3095 13.6469 21.5238C13.6469 20.7619 13.3871 20.0698 12.8677 19.4476C12.3482 18.8254 11.7237 18.5143 10.9942 18.5143C10.2647 18.5143 9.64219 18.8254 9.12656 19.4476C8.61094 20.0698 8.35313 20.7683 8.35313 21.5429C8.35313 22.3175 8.61286 22.9841 9.13234 23.5429C9.65181 24.1016 10.2763 24.381 11.0058 24.381Z" fill="#FFB800"/>
</svg>
