<svg width="16" height="8" viewBox="0 0 16 8" fill="none" xmlns="http://www.w3.org/2000/svg">
<path d="M0.352185 7.69408C0.577756 7.88996 0.883657 8 1.20262 8C1.52157 8 1.82747 7.88996 2.05305 7.69408L8.00726 2.52205L13.9615 7.69408C14.1883 7.88441 14.4922 7.98972 14.8076 7.98734C15.123 7.98496 15.4247 7.87508 15.6477 7.68135C15.8707 7.48763 15.9972 7.22556 16 6.95161C16.0027 6.67765 15.8815 6.41372 15.6623 6.21666L8.85769 0.305919C8.63212 0.110039 8.32622 0 8.00726 0C7.6883 0 7.3824 0.110039 7.15683 0.305919L0.352185 6.21666C0.126681 6.4126 0 6.67831 0 6.95537C0 7.23243 0.126681 7.49814 0.352185 7.69408Z" fill="white"/>
</svg>
