<svg width="22" height="26" viewBox="0 0 22 26" fill="none" xmlns="http://www.w3.org/2000/svg">
<path d="M14.96 0H10.2007C8.04467 0 6.336 0 5.00011 0.1924C3.62389 0.39 2.51044 0.806 1.63289 1.7433C0.754111 2.6806 0.364222 3.8701 0.179667 5.3391C8.82607e-08 6.7665 0 8.5904 0 10.8927V18.4821C0 20.4425 1.12444 22.1221 2.72189 22.8267C2.64 21.6437 2.64 19.9862 2.64 18.6056V12.0926C2.64 10.4273 2.64 8.9908 2.78422 7.8416C2.93944 6.6092 3.289 5.4288 4.18611 4.4707C5.08322 3.5126 6.18933 3.1395 7.34311 2.9731C8.41867 2.8197 9.76311 2.8197 11.3239 2.8197H15.0761C16.6357 2.8197 17.9777 2.8197 19.0544 2.9731C18.7318 2.09738 18.1686 1.34536 17.4382 0.815044C16.7079 0.284725 15.8443 0.000705636 14.96 0Z" fill="#40C6FF"/>
<path d="M4.4 12.2161C4.4 8.6723 4.4 6.9004 5.43156 5.7993C6.46189 4.6982 8.12044 4.6982 11.44 4.6982H14.96C18.2783 4.6982 19.9381 4.6982 20.9697 5.7993C22 6.9004 22 8.6723 22 12.2161V18.4821C22 22.0259 22 23.7978 20.9697 24.8989C19.9381 26 18.2783 26 14.96 26H11.44C8.12167 26 6.46189 26 5.43156 24.8989C4.4 23.7978 4.4 22.0259 4.4 18.4821V12.2161Z" fill="#40C6FF"/>
</svg>
