<svg width="26" height="26" viewBox="0 0 26 26" fill="none" xmlns="http://www.w3.org/2000/svg">
<path d="M26 13C26 20.1855 20.1855 26 13 26C5.81455 26 0 20.1855 0 13C0 5.81455 5.81455 0 13 0C20.1855 0 26 5.81455 26 13ZM14.1818 3.61636C16.6991 3.93545 18.9918 5.25909 20.5282 7.28L22.5845 6.09818C21.6134 4.72895 20.3618 3.58231 18.9129 2.73459C17.4641 1.88687 15.8512 1.35753 14.1818 1.18182V3.61636ZM3.41545 6.09818L5.47182 7.28C6.23365 6.27879 7.18714 5.43922 8.27672 4.81022C9.3663 4.18123 10.5702 3.77539 11.8182 3.61636V1.18182C10.1488 1.35753 8.53593 1.88687 7.08707 2.73459C5.63821 3.58231 4.38656 4.72895 3.41545 6.09818ZM2.23364 17.8455L4.27818 16.6636C3.79257 15.5033 3.54249 14.2579 3.54249 13C3.54249 11.7421 3.79257 10.4967 4.27818 9.33636L2.23364 8.15454C1.53862 9.67536 1.17891 11.3279 1.17891 13C1.17891 14.6721 1.53862 16.3246 2.23364 17.8455ZM11.8182 22.3836C10.5702 22.2246 9.3663 21.8188 8.27672 21.1898C7.18714 20.5608 6.23365 19.7212 5.47182 18.72L3.41545 19.9018C4.38656 21.271 5.63821 22.4177 7.08707 23.2654C8.53593 24.1131 10.1488 24.6425 11.8182 24.8182V22.3836ZM22.5845 19.9018L20.5282 18.72C19.7663 19.7212 18.8129 20.5608 17.7233 21.1898C16.6337 21.8188 15.4298 22.2246 14.1818 22.3836V24.7473C17.55 24.4045 20.6109 22.6436 22.5845 19.9018ZM23.7664 17.8455C25.1727 14.7727 25.1727 11.2273 23.7664 8.15454L21.7218 9.33636C22.2074 10.4967 22.4575 11.7421 22.4575 13C22.4575 14.2579 22.2074 15.5033 21.7218 16.6636L23.7664 17.8455ZM16.5455 13L13 7.09091L9.45455 13L13 18.9091L16.5455 13Z" fill="#3346AC"/>
</svg>
