<svg width="145" height="145" viewBox="0 0 145 145" fill="none" xmlns="http://www.w3.org/2000/svg">
<mask id="mask0_449_288" style="mask-type:alpha" maskUnits="userSpaceOnUse" x="0" y="0" width="145" height="145">
<circle cx="72.5" cy="72.5" r="72.5" fill="#D9D9D9"/>
</mask>
<g mask="url(#mask0_449_288)">
<path d="M129.025 119.382C136.57 110.311 141.818 99.5583 144.324 88.0328C146.83 76.5074 146.522 64.5483 143.424 53.1673C140.326 41.7863 134.531 31.3181 126.528 22.6484C118.525 13.9787 108.55 7.36242 97.4462 3.35935C86.3428 -0.643714 74.4379 -1.91584 62.7383 -0.349405C51.0388 1.21703 39.889 5.57594 30.2321 12.3586C20.5751 19.1412 12.6952 28.1481 7.25886 38.6172C1.82251 49.0863 -1.01031 60.7097 -0.999972 72.504C-0.996004 89.6497 5.05101 106.246 16.08 119.382C16.4732 119.85 16.763 120.29 17.1412 120.725C17.6141 121.266 18.1237 121.775 18.6123 122.3C20.0833 123.896 21.5964 125.429 23.1831 126.867C23.6664 127.308 24.1655 127.718 24.6541 128.138C26.3353 129.586 28.0638 130.962 29.8553 132.243C30.0865 132.4 30.2966 132.605 30.5278 132.768V132.705C42.8326 141.357 57.5116 146 72.5578 146C87.604 146 102.283 141.357 114.588 132.705V132.768C114.819 132.605 115.024 132.4 115.26 132.243C117.047 130.957 118.78 129.586 120.462 128.138C120.95 127.718 121.449 127.303 121.933 126.867C123.519 125.424 125.032 123.896 126.503 122.3C126.992 121.775 127.496 121.266 127.974 120.725C128.347 120.29 128.657 119.828 129.025 119.382ZM72.5526 30.5085C77.2285 30.5085 81.7994 31.8939 85.6873 34.4896C89.5752 37.0853 92.6054 40.7746 94.3948 45.0911C96.1842 49.4075 96.6524 54.1572 95.7402 58.7395C94.828 63.3218 92.5763 67.531 89.2699 70.8346C85.9635 74.1383 81.751 76.3881 77.1649 77.2996C72.5788 78.2111 67.8252 77.7433 63.5052 75.9553C59.1852 74.1674 55.4929 71.1396 52.8951 67.255C50.2973 63.3702 48.9107 58.8031 48.9107 54.131C48.9107 47.8659 51.4015 41.8574 55.8352 37.4274C60.2689 32.9973 66.2823 30.5085 72.5526 30.5085ZM30.5593 119.382C30.6505 112.489 33.4539 105.909 38.363 101.066C43.2722 96.2227 49.8924 93.5054 56.7913 93.5018H88.3138C95.2128 93.5054 101.833 96.2227 106.742 101.066C111.651 105.909 114.455 112.489 114.546 119.382C103.023 129.756 88.063 135.498 72.5526 135.498C57.0421 135.498 42.0816 129.756 30.5593 119.382Z" fill="#3346AC"/>
</g>
</svg>
