<svg width="22" height="16" viewBox="0 0 22 16" fill="none" xmlns="http://www.w3.org/2000/svg">
<path d="M20.9407 7.6C18.8233 2.91 14.8401 0 10.5424 0C6.24467 0 2.26143 2.91 0.144029 7.6C0.0863105 7.72617 0.0565186 7.86234 0.0565186 8C0.0565186 8.13766 0.0863105 8.27383 0.144029 8.4C2.26143 13.09 6.24467 16 10.5424 16C14.8401 16 18.8233 13.09 20.9407 8.4C20.9984 8.27383 21.0282 8.13766 21.0282 8C21.0282 7.86234 20.9984 7.72617 20.9407 7.6ZM10.5424 14C7.21951 14 4.07485 11.71 2.26143 8C4.07485 4.29 7.21951 2 10.5424 2C13.8652 2 17.0099 4.29 18.8233 8C17.0099 11.71 13.8652 14 10.5424 14ZM10.5424 4C9.71309 4 8.90245 4.2346 8.21293 4.67412C7.52341 5.11365 6.986 5.73836 6.66865 6.46927C6.3513 7.20017 6.26827 8.00444 6.43005 8.78036C6.59184 9.55628 6.99117 10.269 7.57756 10.8284C8.16394 11.3878 8.91104 11.7688 9.72438 11.9231C10.5377 12.0775 11.3808 11.9983 12.1469 11.6955C12.9131 11.3928 13.5679 10.8801 14.0286 10.2223C14.4893 9.56448 14.7352 8.79113 14.7352 8C14.7352 6.93913 14.2935 5.92172 13.5072 5.17157C12.7209 4.42143 11.6544 4 10.5424 4ZM10.5424 10C10.1277 10 9.72241 9.8827 9.37765 9.66294C9.03289 9.44318 8.76418 9.13082 8.60551 8.76537C8.44684 8.39991 8.40532 7.99778 8.48621 7.60982C8.5671 7.22186 8.76677 6.86549 9.05996 6.58579C9.35315 6.30608 9.7267 6.1156 10.1334 6.03843C10.54 5.96126 10.9616 6.00087 11.3446 6.15224C11.7277 6.30362 12.0551 6.55996 12.2855 6.88886C12.5159 7.21776 12.6388 7.60444 12.6388 8C12.6388 8.53043 12.4179 9.03914 12.0248 9.41421C11.6316 9.78929 11.0984 10 10.5424 10Z" fill="#958DB1"/>
</svg>
