<svg width="18" height="18" viewBox="0 0 18 18" fill="none" xmlns="http://www.w3.org/2000/svg">
<path d="M12.9767 6.34091V12.6818C12.9767 12.8011 12.9375 12.8991 12.859 12.9759C12.7805 13.0526 12.6802 13.0909 12.5581 13.0909H10.4651C10.343 13.0909 10.2427 13.0526 10.1642 12.9759C10.0858 12.8991 10.0465 12.8011 10.0465 12.6818V6.34091C10.0465 5.38636 9.69767 4.56818 9 3.88636C8.30233 3.20455 7.46512 2.86364 6.48837 2.86364H2.93023V17.5909C2.93023 17.7102 2.89099 17.8082 2.8125 17.8849C2.73401 17.9616 2.63372 18 2.51163 18H0.418605C0.296512 18 0.196221 17.9616 0.117733 17.8849C0.0392442 17.8082 0 17.7102 0 17.5909V0.409091C0 0.289773 0.0392442 0.191761 0.117733 0.115057C0.196221 0.0383523 0.296512 0 0.418605 0H6.48837C7.6657 0 8.75145 0.283381 9.74564 0.850142C10.7398 1.4169 11.5269 2.18608 12.1068 3.15767C12.6868 4.12926 12.9767 5.19034 12.9767 6.34091ZM18 0.409091V11.6591C18 12.8097 17.71 13.8707 17.1301 14.8423C16.5501 15.8139 15.7631 16.5831 14.7689 17.1499C13.7747 17.7166 12.689 18 11.5116 18H5.44186C5.31977 18 5.21948 17.9616 5.14099 17.8849C5.0625 17.8082 5.02326 17.7102 5.02326 17.5909V5.31818C5.02326 5.19886 5.0625 5.10085 5.14099 5.02415C5.21948 4.94744 5.31977 4.90909 5.44186 4.90909H7.53488C7.65698 4.90909 7.75727 4.94744 7.83576 5.02415C7.91424 5.10085 7.95349 5.19886 7.95349 5.31818V15.1364H11.5116C12.4884 15.1364 13.3256 14.7955 14.0233 14.1136C14.7209 13.4318 15.0698 12.6136 15.0698 11.6591V0.409091C15.0698 0.289773 15.109 0.191761 15.1875 0.115057C15.266 0.0383523 15.3663 0 15.4884 0H17.5814C17.7035 0 17.8038 0.0383523 17.8823 0.115057C17.9608 0.191761 18 0.289773 18 0.409091Z" fill="#958DB1"/>
</svg>
