<svg width="336" height="351" viewBox="0 0 336 351" fill="none" xmlns="http://www.w3.org/2000/svg">
<path d="M168.508 128.604C165.656 129.325 129.676 136.584 112.043 140.123L99.5612 172.163L91.5822 193.144L82.8301 205.862L81.9832 210.598L81.0645 213.893L76.8151 215.552L76.5617 224.952L64.0081 255.551L60.9288 258.956L53.8326 275.922L49.2939 286.26L43.3338 289.81L39.7857 298.293L45.9253 298.344L50.7872 294.488L55.0724 293.549L61.9871 287.423L69.1173 285.618L74.5557 278.845L78.6973 275.025L86.0619 270.682L93.9482 269.561L93.4265 266.338L97.8384 260.7L103.385 256.087L107.634 254.428L111.902 245.909L116.223 245.69L121.085 241.834L128.45 237.491L135.508 234.246L141.126 231.073L145.105 231.233L150.579 225.18L153.082 224.693L158.124 224.438L162.643 220.96L172.204 217.227L172.223 210.367L174.853 205.18L179.337 200.982L187.259 200.581L203.339 182.8L217.078 175.968L221.724 167.791L227.199 161.738L231.647 156.82L235.752 152.28L246.034 148.511L270.182 118.769L275.188 117.794L288.709 121.082L303.689 117.436L309.451 117.145L315.664 104.195L321.696 102.085L327.639 90.9536L330.161 83.6057L320.655 81.1982L309.402 79.9621L302.217 87.9068L286.014 81.5058L284.556 73.998L273.7 66.2435L265.345 72.4423L256.72 80.4598L252.741 80.3L250.023 76.4662L247.07 75.1715L239.543 83.4945L214.442 101.371C200.319 110.147 171.36 127.882 168.508 128.604Z" fill="url(#paint0_linear_2008_52)"/>
<path fill-rule="evenodd" clip-rule="evenodd" d="M112.043 140.123C129.677 136.584 165.656 129.325 168.508 128.603C170.896 127.999 191.59 115.466 206.55 106.252L247.443 146.775L246.034 148.511L235.753 152.28L231.647 156.82L227.199 161.738L221.725 167.791L217.078 175.968L203.34 182.8L187.259 200.581L179.337 200.982L174.853 205.18L172.224 210.367L172.205 217.227L162.644 220.96L158.152 224.416L101.194 167.973L112.043 140.123Z" fill="#83339E"/>
<path fill-rule="evenodd" clip-rule="evenodd" d="M156.819 224.503L100.798 168.989L99.5617 172.162L91.5826 193.144L82.8305 205.861L81.9836 210.597L81.0649 213.893L76.8155 215.552L76.5622 224.951L64.0086 255.551L60.9292 258.955L53.833 275.921L49.2943 286.259L43.3343 289.81L39.7861 298.293L45.9258 298.343L50.7876 294.487L55.0729 293.548L61.9876 287.422L69.1177 285.618L74.5561 278.844L78.6978 275.025L86.0623 270.681L93.9486 269.56L93.4269 266.338L97.8389 260.699L103.385 256.087L107.634 254.428L111.903 245.908L116.224 245.69L121.086 241.834L128.45 237.49L135.509 234.245L141.127 231.073L145.106 231.233L150.58 225.18L153.083 224.692L156.819 224.503Z" fill="#9450E0"/>
<path d="M187.312 160.984C187.312 166.656 182.719 166.656 177 166.656C171.281 166.656 166.688 166.656 166.688 160.984C166.688 155.312 171.328 146.031 177 146.031C182.672 146.031 187.312 155.266 187.312 160.984Z" fill="#DBB471"/>
<path d="M187.312 160.984C187.312 159.062 186.797 156.719 185.859 154.469C186.047 155.922 185.672 158.5 181.219 159.484C174.891 160.844 178.172 162.625 175.688 162.859C173.578 163.047 167.953 162.203 166.828 159.016C166.734 159.719 166.641 160.375 166.641 161.031C166.688 166.656 171.328 166.656 177 166.656C182.672 166.656 187.312 166.656 187.312 160.984Z" fill="#89664C"/>
<path d="M179.766 158.266C179.578 157.328 178.781 157.047 177.938 157V155.688C178.172 155.781 178.453 155.922 178.641 156.062C179.016 156.297 179.391 155.688 179.016 155.453C178.688 155.266 178.312 155.078 177.938 154.938V153.391C177.938 152.922 177.234 152.922 177.234 153.391V154.75C176.859 154.703 176.484 154.703 176.109 154.75C176.062 154.422 175.969 154.094 175.875 153.766C175.781 153.297 175.078 153.484 175.219 153.953C175.312 154.281 175.359 154.609 175.453 154.938C175.406 154.938 175.406 154.937 175.359 154.984C174.422 155.359 173.812 156.297 174.516 157.188C174.844 157.609 175.266 157.75 175.734 157.844C175.781 158.453 175.781 159.062 175.781 159.672C175.453 159.484 175.172 159.203 174.938 158.969C174.609 158.641 174.141 159.156 174.422 159.484C174.844 159.953 175.312 160.281 175.781 160.516C175.781 161.031 175.828 161.547 175.875 162.062C175.922 162.531 176.625 162.531 176.578 162.062C176.531 161.594 176.484 161.172 176.484 160.703C176.766 160.75 177.047 160.75 177.328 160.75C177.375 161.219 177.422 161.688 177.469 162.203C177.516 162.672 178.219 162.672 178.172 162.203C178.125 161.688 178.078 161.172 178.031 160.609C179.062 160.234 180 159.438 179.766 158.266ZM177.234 155.453V157C177 157 176.812 157.047 176.625 157.047H176.391L176.25 155.359C176.578 155.359 176.906 155.406 177.234 155.453ZM175.547 156.953C175.359 156.906 175.172 156.766 174.984 156.625C174.562 156.203 175.172 155.828 175.547 155.641C175.594 156.109 175.641 156.531 175.688 157C175.641 157 175.594 157 175.547 156.953ZM177.094 159.953C176.859 160 176.672 159.953 176.484 159.906C176.438 159.203 176.438 158.5 176.438 157.75C176.719 157.75 177 157.703 177.281 157.703C177.281 158.453 177.328 159.156 177.328 159.906C177.234 159.953 177.188 159.953 177.094 159.953ZM178.641 159.438C178.453 159.578 178.219 159.672 178.031 159.766C177.984 159.062 177.984 158.406 177.984 157.703H178.219C179.109 157.891 179.344 158.875 178.641 159.438Z" fill="#89664C"/>
<path d="M177.938 164.781H176.859V166.656L181.219 169L191.062 165.953V164.312L187.453 162.203L177.938 164.781Z" fill="#699635"/>
<path d="M177 163.703C177 163.703 178.125 165.531 181.312 167.125C181.312 167.125 186.281 166.891 191.062 163.703C191.062 163.703 188.297 162.344 187.5 160.562C187.5 160.562 185.625 163.188 177 163.703Z" fill="#83BF4F"/>
<path d="M174.891 164.734L175.922 164.688L176.062 166.422L171.984 169L162.188 166.891L162.047 165.344L165.375 163.047L174.891 164.734Z" fill="#699635"/>
<path d="M175.688 163.656C175.688 163.656 174.703 165.484 171.75 167.219C171.75 167.219 166.922 167.359 162 164.781C162 164.781 164.625 163.281 165.234 161.5C165.234 161.5 167.297 163.844 175.688 163.656Z" fill="#83BF4F"/>
<path d="M166.125 164.828C166.617 164.828 167.016 164.555 167.016 164.219C167.016 163.882 166.617 163.609 166.125 163.609C165.633 163.609 165.234 163.882 165.234 164.219C165.234 164.555 165.633 164.828 166.125 164.828Z" fill="#699635"/>
<path d="M170.906 163.469C170.906 163.469 169.828 164.875 167.484 166.797L167.625 168.062L165.984 167.688L165.891 166.328C165.891 166.328 168.281 164.125 168.797 163.047C168.75 163.047 169.594 163.328 170.906 163.469ZM181.734 163.141C181.734 163.141 182.156 164.266 185.344 166.328V167.688L187.172 167.125V165.719C187.172 165.719 184.969 164.172 183.656 162.625L181.734 163.141Z" fill="#F9F3D9"/>
<path d="M179.062 161.641L178.031 161.594L177.938 163.516L182.109 166.188L191.906 163.516L191.953 161.828L188.531 159.438L179.062 161.641Z" fill="#699635"/>
<path d="M178.219 160.469C178.219 160.469 179.25 162.438 182.297 164.219C182.297 164.219 187.172 164.219 192 161.219C192 161.219 189.328 159.672 188.672 157.75C188.672 157.75 186.656 160.375 178.219 160.469Z" fill="#83BF4F"/>
<path d="M183.938 162.156C183.75 162.391 183.141 162.484 182.625 162.344C182.109 162.203 181.875 161.875 182.062 161.641C182.25 161.406 182.859 161.312 183.375 161.453C183.891 161.594 184.125 161.875 183.938 162.156Z" fill="#699635"/>
<path d="M183 160.094C183 160.094 184.125 161.594 186.516 163.609L186.469 165.016L188.109 164.547L188.156 163.047C188.156 163.047 185.719 160.703 185.109 159.578C185.156 159.578 184.359 159.906 183 160.094Z" fill="#F9F3D9"/>
<path d="M183.562 139.938C183.562 142.797 179.859 147.438 177 147.438C174.141 147.438 170.438 143.266 170.438 140.406C170.438 137.547 170.859 140.406 173.719 140.406C174.141 140.406 176.109 139 177 139C177.609 139 179.344 140.406 180.281 140.406C182.766 140.406 183.562 137.781 183.562 139.938Z" fill="#DBB471"/>
<path d="M176.156 145.234C175.875 145.422 174.516 145.281 174.094 145.609C173.531 146.031 174.328 147.016 173.766 147.625C172.641 148.75 171.75 150.016 172.031 150.719C172.5 151.938 173.391 148.469 174.188 149.781C174.984 151.094 174.844 148.891 176.062 150.016C177.281 151.141 176.25 148 177.422 149.359C178.594 150.719 178.641 152.266 179.484 152.266C180.469 152.266 178.453 148.562 179.766 149.453C181.078 150.344 182.531 150.016 181.219 148.656C180.797 148.234 180.234 147.484 179.578 146.828C179.344 146.594 179.531 145.375 179.297 145.188C179.016 144.953 178.312 145.703 178.031 145.562C177.469 145.281 177.656 145.797 176.812 145.938C176.25 146.125 176.719 144.859 176.156 145.234Z" fill="#89664C"/>
<path d="M170.766 148C172.594 146.266 175.922 147.25 177.891 148.094C179.812 148.938 180.984 146.266 179.766 144.906C179.062 144.109 177.937 145.047 177.516 145.609C177.047 146.172 176.672 146.781 176.156 147.344C175.406 148.188 173.578 147.484 174.141 146.312C174.75 145.094 177.328 146.5 178.172 146.734C179.812 147.203 181.547 147.391 183.188 146.781C183.75 146.594 183.516 145.656 182.953 145.891C181.125 146.547 179.297 146.125 177.562 145.562C176.672 145.281 175.266 144.531 174.328 144.953C171.656 146.219 174.141 149.828 176.391 148.422C176.906 148.094 177.234 147.578 177.609 147.109C177.844 146.828 179.016 145.047 179.297 145.938C179.438 146.406 179.297 147.25 178.781 147.391C178.453 147.531 177.797 147.062 177.469 146.969C176.859 146.734 176.25 146.547 175.594 146.406C173.859 146.031 171.516 146.125 170.156 147.391C169.688 147.766 170.344 148.422 170.766 148Z" fill="#E8E8E8"/>
<path d="M183 139.234C182.531 139.609 181.688 140.406 180.281 140.406C179.344 140.406 177.609 139 177 139C176.109 139 174.141 140.406 173.719 140.406C172.172 140.406 171.328 139.609 170.906 139.281C170.906 139.281 171.422 141.391 173.016 142.469C174.188 143.219 174.047 142.328 174.656 141.484C175.266 140.641 175.688 140.219 176.766 142.328C177.328 143.5 178.406 139.141 179.25 140.547C180.797 143.125 181.359 141.719 183 139.234Z" fill="#89664C"/>
<path d="M186.562 163.562L186.516 164.969L188.156 164.5L188.203 163C188.203 163.047 187.219 163.422 186.562 163.562ZM185.344 166.375V167.734L187.172 167.172V165.766C187.125 165.719 186.656 166 185.344 166.375ZM167.484 166.75L167.625 168.062L165.984 167.688L165.891 166.328C165.844 166.328 166.5 166.562 167.484 166.75Z" fill="#DBB471"/>
<path d="M113.406 220.855C113.406 225.203 109.884 225.203 105.5 225.203C101.116 225.203 97.5938 225.203 97.5938 220.855C97.5938 216.506 101.152 209.391 105.5 209.391C109.848 209.391 113.406 216.47 113.406 220.855Z" fill="#DBB471"/>
<path d="M113.406 220.855C113.406 219.381 113.011 217.584 112.292 215.859C112.436 216.973 112.148 218.95 108.734 219.705C103.883 220.747 106.398 222.113 104.494 222.292C102.877 222.436 98.5641 221.789 97.7016 219.345C97.6297 219.884 97.5578 220.388 97.5578 220.891C97.5937 225.203 101.152 225.203 105.5 225.203C109.848 225.203 113.406 225.203 113.406 220.855Z" fill="#89664C"/>
<path d="M107.62 218.77C107.477 218.052 106.866 217.836 106.219 217.8V216.794C106.398 216.866 106.614 216.973 106.758 217.081C107.045 217.261 107.333 216.794 107.045 216.614C106.794 216.47 106.506 216.327 106.219 216.219V215.033C106.219 214.673 105.68 214.673 105.68 215.033V216.075C105.392 216.039 105.105 216.039 104.817 216.075C104.781 215.823 104.709 215.572 104.637 215.32C104.566 214.961 104.027 215.105 104.134 215.464C104.206 215.716 104.242 215.967 104.314 216.219C104.278 216.219 104.278 216.219 104.242 216.255C103.523 216.542 103.056 217.261 103.595 217.944C103.847 218.267 104.17 218.375 104.53 218.447C104.566 218.914 104.566 219.381 104.566 219.848C104.314 219.705 104.098 219.489 103.919 219.309C103.667 219.058 103.308 219.453 103.523 219.705C103.847 220.064 104.206 220.316 104.566 220.495C104.566 220.891 104.602 221.286 104.637 221.681C104.673 222.041 105.213 222.041 105.177 221.681C105.141 221.322 105.105 220.998 105.105 220.639C105.32 220.675 105.536 220.675 105.752 220.675C105.788 221.034 105.823 221.394 105.859 221.789C105.895 222.148 106.434 222.148 106.398 221.789C106.363 221.394 106.327 220.998 106.291 220.567C107.081 220.28 107.8 219.669 107.62 218.77ZM105.68 216.614V217.8C105.5 217.8 105.356 217.836 105.213 217.836H105.033L104.925 216.542C105.177 216.542 105.428 216.578 105.68 216.614ZM104.386 217.764C104.242 217.728 104.098 217.62 103.955 217.512C103.631 217.189 104.098 216.902 104.386 216.758C104.422 217.117 104.458 217.441 104.494 217.8C104.458 217.8 104.422 217.8 104.386 217.764ZM105.572 220.064C105.392 220.1 105.248 220.064 105.105 220.028C105.069 219.489 105.069 218.95 105.069 218.375C105.284 218.375 105.5 218.339 105.716 218.339C105.716 218.914 105.752 219.453 105.752 220.028C105.68 220.064 105.644 220.064 105.572 220.064ZM106.758 219.669C106.614 219.777 106.434 219.848 106.291 219.92C106.255 219.381 106.255 218.878 106.255 218.339H106.434C107.117 218.483 107.297 219.237 106.758 219.669Z" fill="#89664C"/>
<path d="M106.219 223.766H105.392V225.203L108.734 227L116.281 224.664V223.406L113.514 221.789L106.219 223.766Z" fill="#699635"/>
<path d="M105.5 222.939C105.5 222.939 106.363 224.341 108.806 225.562C108.806 225.562 112.616 225.383 116.281 222.939C116.281 222.939 114.161 221.897 113.55 220.531C113.55 220.531 112.112 222.544 105.5 222.939Z" fill="#83BF4F"/>
<path d="M103.883 223.73L104.673 223.694L104.781 225.023L101.655 227L94.1437 225.383L94.0359 224.197L96.5875 222.436L103.883 223.73Z" fill="#699635"/>
<path d="M104.494 222.903C104.494 222.903 103.739 224.305 101.475 225.634C101.475 225.634 97.7734 225.742 94 223.766C94 223.766 96.0125 222.616 96.4797 221.25C96.4797 221.25 98.0609 223.047 104.494 222.903Z" fill="#83BF4F"/>
<path d="M97.1625 223.802C97.5396 223.802 97.8453 223.592 97.8453 223.334C97.8453 223.076 97.5396 222.867 97.1625 222.867C96.7854 222.867 96.4797 223.076 96.4797 223.334C96.4797 223.592 96.7854 223.802 97.1625 223.802Z" fill="#699635"/>
<path d="M100.828 222.759C100.828 222.759 100.002 223.837 98.2047 225.311L98.3125 226.281L97.0547 225.994L96.9828 224.952C96.9828 224.952 98.8156 223.262 99.2109 222.436C99.175 222.436 99.8219 222.652 100.828 222.759ZM109.13 222.508C109.13 222.508 109.453 223.37 111.897 224.952V225.994L113.298 225.562V224.484C113.298 224.484 111.609 223.298 110.603 222.113L109.13 222.508Z" fill="#F9F3D9"/>
<path d="M107.081 221.358L106.291 221.322L106.219 222.795L109.417 224.844L116.928 222.795L116.964 221.502L114.341 219.669L107.081 221.358Z" fill="#699635"/>
<path d="M106.434 220.459C106.434 220.459 107.225 221.969 109.561 223.334C109.561 223.334 113.298 223.334 117 221.034C117 221.034 114.952 219.848 114.448 218.375C114.448 218.375 112.903 220.387 106.434 220.459Z" fill="#83BF4F"/>
<path d="M110.819 221.753C110.675 221.933 110.208 222.005 109.812 221.897C109.417 221.789 109.238 221.538 109.381 221.358C109.525 221.178 109.992 221.106 110.387 221.214C110.783 221.322 110.962 221.538 110.819 221.753Z" fill="#699635"/>
<path d="M110.1 220.172C110.1 220.172 110.962 221.322 112.795 222.867L112.759 223.945L114.017 223.586L114.053 222.436C114.053 222.436 112.184 220.639 111.717 219.777C111.753 219.777 111.142 220.028 110.1 220.172Z" fill="#F9F3D9"/>
<path d="M110.531 204.719C110.531 206.911 107.692 210.469 105.5 210.469C103.308 210.469 100.469 207.27 100.469 205.078C100.469 202.886 100.792 205.078 102.984 205.078C103.308 205.078 104.817 204 105.5 204C105.967 204 107.297 205.078 108.016 205.078C109.92 205.078 110.531 203.066 110.531 204.719Z" fill="#DBB471"/>
<path d="M104.853 208.78C104.637 208.923 103.595 208.816 103.272 209.067C102.841 209.391 103.452 210.145 103.02 210.612C102.158 211.475 101.475 212.445 101.691 212.984C102.05 213.919 102.733 211.259 103.344 212.266C103.955 213.272 103.847 211.583 104.781 212.445C105.716 213.308 104.925 210.9 105.823 211.942C106.722 212.984 106.758 214.17 107.405 214.17C108.159 214.17 106.614 211.331 107.62 212.014C108.627 212.697 109.741 212.445 108.734 211.403C108.411 211.08 107.98 210.505 107.477 210.002C107.297 209.822 107.441 208.887 107.261 208.744C107.045 208.564 106.506 209.139 106.291 209.031C105.859 208.816 106.003 209.211 105.356 209.319C104.925 209.463 105.284 208.492 104.853 208.78Z" fill="#89664C"/>
<path d="M100.72 210.9C102.122 209.57 104.673 210.325 106.183 210.972C107.656 211.619 108.555 209.57 107.62 208.528C107.081 207.917 106.219 208.636 105.895 209.067C105.536 209.498 105.248 209.966 104.853 210.397C104.278 211.044 102.877 210.505 103.308 209.606C103.775 208.672 105.752 209.75 106.398 209.93C107.656 210.289 108.986 210.433 110.244 209.966C110.675 209.822 110.495 209.103 110.064 209.283C108.663 209.786 107.261 209.463 105.931 209.031C105.248 208.816 104.17 208.241 103.452 208.564C101.403 209.534 103.308 212.302 105.033 211.223C105.428 210.972 105.68 210.577 105.967 210.217C106.147 210.002 107.045 208.636 107.261 209.319C107.369 209.678 107.261 210.325 106.866 210.433C106.614 210.541 106.111 210.181 105.859 210.109C105.392 209.93 104.925 209.786 104.422 209.678C103.092 209.391 101.295 209.462 100.253 210.433C99.8937 210.72 100.397 211.223 100.72 210.9Z" fill="#E8E8E8"/>
<path d="M110.1 204.18C109.741 204.467 109.094 205.078 108.016 205.078C107.297 205.078 105.967 204 105.5 204C104.817 204 103.308 205.078 102.984 205.078C101.798 205.078 101.152 204.467 100.828 204.216C100.828 204.216 101.223 205.833 102.445 206.659C103.344 207.234 103.236 206.552 103.703 205.905C104.17 205.258 104.494 204.934 105.32 206.552C105.752 207.45 106.578 204.108 107.225 205.186C108.411 207.162 108.842 206.084 110.1 204.18Z" fill="#89664C"/>
<path d="M112.831 222.831L112.795 223.909L114.053 223.55L114.089 222.4C114.089 222.436 113.334 222.723 112.831 222.831ZM111.897 224.988V226.03L113.298 225.598V224.52C113.263 224.484 112.903 224.7 111.897 224.988ZM98.2047 225.275L98.3125 226.281L97.0547 225.994L96.9828 224.952C96.9469 224.952 97.45 225.131 98.2047 225.275Z" fill="#DBB471"/>
<path d="M270.875 105.656C270.875 109.438 267.812 109.438 264 109.438C260.188 109.438 257.125 109.438 257.125 105.656C257.125 101.875 260.219 95.6875 264 95.6875C267.781 95.6875 270.875 101.844 270.875 105.656Z" fill="#DBB471"/>
<path d="M270.875 105.656C270.875 104.375 270.531 102.812 269.906 101.312C270.031 102.281 269.781 104 266.812 104.656C262.594 105.562 264.781 106.75 263.125 106.906C261.719 107.031 257.969 106.469 257.219 104.344C257.156 104.812 257.094 105.25 257.094 105.688C257.125 109.438 260.219 109.438 264 109.438C267.781 109.438 270.875 109.438 270.875 105.656Z" fill="#89664C"/>
<path d="M265.844 103.844C265.719 103.219 265.188 103.031 264.625 103V102.125C264.781 102.188 264.969 102.281 265.094 102.375C265.344 102.531 265.594 102.125 265.344 101.969C265.125 101.844 264.875 101.719 264.625 101.625V100.594C264.625 100.281 264.156 100.281 264.156 100.594V101.5C263.906 101.469 263.656 101.469 263.406 101.5C263.375 101.281 263.312 101.062 263.25 100.844C263.188 100.531 262.719 100.656 262.812 100.969C262.875 101.188 262.906 101.406 262.969 101.625C262.938 101.625 262.938 101.625 262.906 101.656C262.281 101.906 261.875 102.531 262.344 103.125C262.562 103.406 262.844 103.5 263.156 103.562C263.188 103.969 263.188 104.375 263.188 104.781C262.969 104.656 262.781 104.469 262.625 104.312C262.406 104.094 262.094 104.438 262.281 104.656C262.562 104.969 262.875 105.188 263.188 105.344C263.188 105.688 263.219 106.031 263.25 106.375C263.281 106.688 263.75 106.688 263.719 106.375C263.688 106.062 263.656 105.781 263.656 105.469C263.844 105.5 264.031 105.5 264.219 105.5C264.25 105.812 264.281 106.125 264.312 106.469C264.344 106.781 264.812 106.781 264.781 106.469C264.75 106.125 264.719 105.781 264.688 105.406C265.375 105.156 266 104.625 265.844 103.844ZM264.156 101.969V103C264 103 263.875 103.031 263.75 103.031H263.594L263.5 101.906C263.719 101.906 263.938 101.937 264.156 101.969ZM263.031 102.969C262.906 102.938 262.781 102.844 262.656 102.75C262.375 102.469 262.781 102.219 263.031 102.094C263.062 102.406 263.094 102.688 263.125 103C263.094 103 263.062 103 263.031 102.969ZM264.062 104.969C263.906 105 263.781 104.969 263.656 104.938C263.625 104.469 263.625 104 263.625 103.5C263.812 103.5 264 103.469 264.188 103.469C264.188 103.969 264.219 104.437 264.219 104.938C264.156 104.969 264.125 104.969 264.062 104.969ZM265.094 104.625C264.969 104.719 264.812 104.781 264.688 104.844C264.656 104.375 264.656 103.938 264.656 103.469H264.812C265.406 103.594 265.562 104.25 265.094 104.625Z" fill="#89664C"/>
<path d="M264.625 108.188H263.906V109.438L266.812 111L273.375 108.969V107.875L270.969 106.469L264.625 108.188Z" fill="#699635"/>
<path d="M264 107.469C264 107.469 264.75 108.688 266.875 109.75C266.875 109.75 270.188 109.594 273.375 107.469C273.375 107.469 271.531 106.562 271 105.375C271 105.375 269.75 107.125 264 107.469Z" fill="#83BF4F"/>
<path d="M262.594 108.156L263.281 108.125L263.375 109.281L260.656 111L254.125 109.594L254.031 108.562L256.25 107.031L262.594 108.156Z" fill="#699635"/>
<path d="M263.125 107.438C263.125 107.438 262.469 108.656 260.5 109.812C260.5 109.812 257.281 109.906 254 108.188C254 108.188 255.75 107.188 256.156 106C256.156 106 257.531 107.562 263.125 107.438Z" fill="#83BF4F"/>
<path d="M256.75 108.219C257.078 108.219 257.344 108.037 257.344 107.812C257.344 107.588 257.078 107.406 256.75 107.406C256.422 107.406 256.156 107.588 256.156 107.812C256.156 108.037 256.422 108.219 256.75 108.219Z" fill="#699635"/>
<path d="M259.938 107.312C259.938 107.312 259.219 108.25 257.656 109.531L257.75 110.375L256.656 110.125L256.594 109.219C256.594 109.219 258.188 107.75 258.531 107.031C258.5 107.031 259.062 107.219 259.938 107.312ZM267.156 107.094C267.156 107.094 267.438 107.844 269.562 109.219V110.125L270.781 109.75V108.812C270.781 108.812 269.312 107.781 268.438 106.75L267.156 107.094Z" fill="#F9F3D9"/>
<path d="M265.375 106.094L264.688 106.062L264.625 107.344L267.406 109.125L273.938 107.344L273.969 106.219L271.688 104.625L265.375 106.094Z" fill="#699635"/>
<path d="M264.812 105.312C264.812 105.312 265.5 106.625 267.531 107.812C267.531 107.812 270.781 107.812 274 105.812C274 105.812 272.219 104.781 271.781 103.5C271.781 103.5 270.438 105.25 264.812 105.312Z" fill="#83BF4F"/>
<path d="M268.625 106.438C268.5 106.594 268.094 106.656 267.75 106.562C267.406 106.469 267.25 106.25 267.375 106.094C267.5 105.938 267.906 105.875 268.25 105.969C268.594 106.063 268.75 106.25 268.625 106.438Z" fill="#699635"/>
<path d="M268 105.062C268 105.062 268.75 106.062 270.344 107.406L270.312 108.344L271.406 108.031L271.438 107.031C271.438 107.031 269.812 105.469 269.406 104.719C269.438 104.719 268.906 104.938 268 105.062Z" fill="#F9F3D9"/>
<path d="M268.375 91.625C268.375 93.5312 265.906 96.625 264 96.625C262.094 96.625 259.625 93.8438 259.625 91.9375C259.625 90.0312 259.906 91.9375 261.812 91.9375C262.094 91.9375 263.406 91 264 91C264.406 91 265.562 91.9375 266.188 91.9375C267.844 91.9375 268.375 90.1875 268.375 91.625Z" fill="#DBB471"/>
<path d="M263.438 95.1562C263.25 95.2812 262.344 95.1875 262.062 95.4062C261.687 95.6875 262.219 96.3438 261.844 96.75C261.094 97.5 260.5 98.3438 260.688 98.8125C261 99.625 261.594 97.3125 262.125 98.1875C262.656 99.0625 262.562 97.5938 263.375 98.3438C264.188 99.0938 263.5 97 264.281 97.9062C265.062 98.8125 265.094 99.8438 265.656 99.8438C266.312 99.8438 264.969 97.375 265.844 97.9688C266.719 98.5625 267.688 98.3438 266.812 97.4375C266.531 97.1562 266.156 96.6562 265.719 96.2188C265.562 96.0625 265.688 95.25 265.531 95.125C265.344 94.9688 264.875 95.4688 264.688 95.375C264.312 95.1875 264.437 95.5312 263.875 95.625C263.5 95.75 263.812 94.9062 263.438 95.1562Z" fill="#89664C"/>
<path d="M259.844 97C261.063 95.8438 263.281 96.5 264.594 97.0625C265.875 97.625 266.656 95.8438 265.844 94.9375C265.375 94.4062 264.625 95.0312 264.344 95.4062C264.031 95.7812 263.781 96.1875 263.438 96.5625C262.938 97.125 261.719 96.6562 262.094 95.875C262.5 95.0625 264.219 96 264.781 96.1562C265.875 96.4688 267.031 96.5938 268.125 96.1875C268.5 96.0625 268.344 95.4375 267.969 95.5938C266.75 96.0312 265.531 95.75 264.375 95.375C263.781 95.1875 262.844 94.6875 262.219 94.9688C260.438 95.8125 262.094 98.2188 263.594 97.2812C263.938 97.0625 264.156 96.7188 264.406 96.4062C264.562 96.2187 265.344 95.0312 265.531 95.625C265.625 95.9375 265.531 96.5 265.188 96.5938C264.969 96.6875 264.531 96.375 264.312 96.3125C263.906 96.1562 263.5 96.0312 263.062 95.9375C261.906 95.6875 260.344 95.75 259.438 96.5938C259.125 96.8438 259.563 97.2812 259.844 97Z" fill="#E8E8E8"/>
<path d="M268 91.1562C267.688 91.4062 267.125 91.9375 266.188 91.9375C265.562 91.9375 264.406 91 264 91C263.406 91 262.094 91.9375 261.812 91.9375C260.781 91.9375 260.219 91.4062 259.938 91.1875C259.938 91.1875 260.281 92.5938 261.344 93.3125C262.125 93.8125 262.031 93.2188 262.438 92.6562C262.844 92.0938 263.125 91.8125 263.844 93.2188C264.219 94 264.938 91.0937 265.5 92.0312C266.531 93.75 266.906 92.8125 268 91.1562Z" fill="#89664C"/>
<path d="M270.375 107.375L270.344 108.312L271.438 108L271.469 107C271.469 107.031 270.812 107.281 270.375 107.375ZM269.562 109.25V110.156L270.781 109.781V108.844C270.75 108.812 270.438 109 269.562 109.25ZM257.656 109.5L257.75 110.375L256.656 110.125L256.594 109.219C256.562 109.219 257 109.375 257.656 109.5Z" fill="#DBB471"/>
<defs>
<linearGradient id="paint0_linear_2008_52" x1="205" y1="123.5" x2="132.5" y2="204.5" gradientUnits="userSpaceOnUse">
<stop stop-color="#501E6F"/>
<stop offset="1" stop-color="#83339E"/>
</linearGradient>
</defs>
</svg>
