<svg width="12" height="12" viewBox="0 0 12 12" fill="none" xmlns="http://www.w3.org/2000/svg">
<path d="M11.7002 5.4661L9.28574 7.65303L10.009 10.909C10.0473 11.0792 10.0364 11.2573 9.97761 11.4211C9.91886 11.5849 9.81489 11.7271 9.67869 11.8299C9.5425 11.9328 9.38013 11.9916 9.21187 11.9992C9.04362 12.0067 8.87696 11.9626 8.73272 11.8724L5.99652 10.15L3.26621 11.8724C3.12197 11.9626 2.95531 12.0067 2.78705 11.9992C2.6188 11.9916 2.45643 11.9328 2.32024 11.8299C2.18404 11.7271 2.08007 11.5849 2.02132 11.4211C1.96257 11.2573 1.95165 11.0792 1.98993 10.909L2.71212 7.65636L0.297134 5.4661C0.169403 5.35176 0.0770399 5.20084 0.0316278 5.03224C-0.0137844 4.86364 -0.0102243 4.68488 0.0418616 4.51838C0.0939475 4.35187 0.192241 4.20504 0.324415 4.09628C0.456589 3.98752 0.61676 3.92168 0.784842 3.90702L3.96806 3.62088L5.21062 0.544954C5.27551 0.383555 5.38496 0.245689 5.52519 0.148717C5.66542 0.051744 5.83016 0 5.99866 0C6.16717 0 6.33191 0.051744 6.47214 0.148717C6.61237 0.245689 6.72182 0.383555 6.7867 0.544954L8.03301 3.62088L11.2152 3.90702C11.3832 3.92168 11.5434 3.98752 11.6756 4.09628C11.8078 4.20504 11.9061 4.35187 11.9581 4.51838C12.0102 4.68488 12.0138 4.86364 11.9684 5.03224C11.923 5.20084 11.8306 5.35176 11.7029 5.4661H11.7002Z" fill="#FFB800"/>
</svg>
