<svg width="16" height="15" viewBox="0 0 16 15" fill="none" xmlns="http://www.w3.org/2000/svg">
<path d="M10.0709 5.78624L9.4366 5.68082C9.4213 5.7729 9.42622 5.86722 9.45105 5.9572C9.47588 6.04719 9.52 6.13069 9.58036 6.20189C9.64072 6.2731 9.71587 6.33031 9.80057 6.36954C9.88527 6.40877 9.97751 6.42908 10.0709 6.42906V5.78624ZM0.64282 5.78624V5.14342C0.472334 5.14342 0.30883 5.21115 0.188278 5.3317C0.0677254 5.45225 0 5.61575 0 5.78624H0.64282ZM2.35701 15H12.0936V13.7144H2.35701V15ZM13.1221 5.14342H10.0709V6.42906H13.1221V5.14342ZM10.7051 5.89166L11.3959 1.74761L10.1274 1.53591L9.4366 5.68082L10.7051 5.89166ZM9.91658 0.000857032H9.73316V1.2865H9.91572L9.91658 0.000857032ZM7.05817 1.4322L4.90258 4.66602L5.97223 5.37912L8.12782 2.14531L7.05817 1.4322ZM4.0112 5.14342H0.64282V6.42906H4.0112V5.14342ZM0 5.78624V12.643H1.28564V5.78624H0ZM14.4052 13.1058L15.4337 7.96326L14.1738 7.71042L13.1452 12.853L14.4052 13.1058ZM4.90258 4.66602C4.80478 4.81283 4.67225 4.93236 4.51675 5.01564C4.36125 5.09892 4.1876 5.14252 4.0112 5.14256V6.4282C4.79973 6.4282 5.53511 6.0348 5.97223 5.37912L4.90258 4.66602ZM11.3959 1.74761C11.4316 1.5328 11.4201 1.31193 11.3622 1.102C11.3044 0.892076 11.2014 0.697274 11.0607 0.531133C10.9199 0.364992 10.7446 0.231496 10.5471 0.139923C10.3495 0.0483496 10.1343 0.000895058 9.91658 0.000857032L9.91572 1.2865C9.94679 1.28657 9.97832 1.29341 10.0065 1.30652C10.0347 1.31963 10.0596 1.33871 10.0797 1.36244C10.0997 1.38616 10.1144 1.41397 10.1226 1.44392C10.1309 1.47388 10.1325 1.50527 10.1274 1.53591L11.3959 1.74761ZM13.1221 6.4282C13.7992 6.4282 14.3049 7.04703 14.1729 7.70956L15.4337 7.9624C15.5019 7.6205 15.4934 7.26687 15.4088 6.92865C15.3243 6.59043 15.1657 6.27518 14.9446 6.00562C14.7235 5.73606 14.4453 5.51891 14.1302 5.36982C13.815 5.22073 13.4707 5.1434 13.1221 5.14342V6.4282ZM12.0936 15C12.6385 15.0001 13.1665 14.8106 13.588 14.4652C14.0094 14.1199 14.2982 13.6392 14.4052 13.105L13.1452 12.8521C13.0967 13.0952 12.9653 13.3139 12.7735 13.471C12.5818 13.628 12.3415 13.7146 12.0936 13.7144V15ZM9.73316 0.000857032C9.20405 0.000895471 8.68312 0.130703 8.21663 0.380395C7.75014 0.630088 7.35251 0.991086 7.05903 1.43135L8.12782 2.14531C8.30399 1.88103 8.54271 1.6635 8.82276 1.51368C9.10282 1.36385 9.41555 1.28638 9.73316 1.2865V0.000857032ZM2.35701 13.7144C1.76561 13.7144 1.28564 13.2344 1.28564 12.643H0C0 13.2681 0.248327 13.8676 0.690352 14.3096C1.13238 14.7517 1.73189 15 2.35701 15V13.7144Z" fill="#9450E0"/>
<path d="M4.0712 5.78624V14.3572V5.78624Z" fill="#9450E0"/>
<path d="M4.0712 5.78624V14.3572" stroke="#9450E0" stroke-width="1.5"/>
</svg>
