<svg width="48" height="54" viewBox="0 0 48 54" fill="none" xmlns="http://www.w3.org/2000/svg">
<path d="M2.87067 44.5969L2.15701 45.2974L2.15749 45.2978L2.87067 44.5969ZM28.2346 1.90211L28.4095 0.917536L28.4092 0.917484L28.2346 1.90211ZM34.189 2.96031L34.014 3.94489L34.0145 3.94497L34.189 2.96031ZM45.183 6.87073L45.9658 6.2484L45.9654 6.24797L45.183 6.87073ZM45.1856 47.1293L45.9675 47.7526L45.9687 47.7511L45.1856 47.1293ZM34.1864 51.0423L34.3611 52.0269L34.3613 52.0269L34.1864 51.0423ZM28.2371 52.0979L28.4118 53.0825L28.4118 53.0825L28.2371 52.0979ZM18.1427 51.9367L18.8126 51.1942L18.812 51.1938L18.1427 51.9367ZM25 24.4C25 23.8477 24.5523 23.4 24 23.4C23.4477 23.4 23 23.8477 23 24.4H25ZM23 29.6C23 30.1523 23.4477 30.6 24 30.6C24.5523 30.6 25 30.1523 25 29.6H23ZM16.3333 6.49993H13.7778V8.49993H16.3333V6.49993ZM13.7778 6.49993C10.7948 6.49993 8.45495 6.49773 6.63147 6.74705C4.77753 7.00052 3.30896 7.53065 2.15749 8.70215L3.58384 10.1041C4.30304 9.37241 5.2763 8.95094 6.90239 8.72861C8.55894 8.50212 10.7373 8.49993 13.7778 8.49993V6.49993ZM2.15749 8.70215C1.00838 9.87125 0.490495 11.3583 0.242445 13.2362C-0.002051 15.0872 0 17.4636 0 20.5H2C2 17.4081 2.00205 15.1877 2.22522 13.4981C2.44484 11.8355 2.86229 10.8382 3.58384 10.1041L2.15749 8.70215ZM0 20.5V33.5H2V20.5H0ZM0 33.5C0 36.5363 -0.00205183 38.9121 0.242448 40.7628C0.490528 42.6406 1.00844 44.1272 2.15701 45.2974L3.58432 43.8964C2.86223 43.1607 2.44481 42.163 2.22522 40.5009C2.00205 38.8117 2 36.5919 2 33.5H0ZM2.15749 45.2978C3.30896 46.4693 4.77753 46.9995 6.63147 47.253C8.45495 47.5023 10.7948 47.5001 13.7778 47.5001V45.5001C10.7373 45.5001 8.55894 45.4979 6.90239 45.2714C5.2763 45.0491 4.30304 44.6276 3.58384 43.8959L2.15749 45.2978ZM13.7778 47.5001H16.3333V45.5001H13.7778V47.5001ZM17.3333 12.6375C17.3333 9.6279 17.3354 7.47115 17.5504 5.85818C17.7628 4.26498 18.1621 3.39037 18.81 2.80576L17.4702 1.32085C16.3114 2.36646 15.8073 3.79805 15.5679 5.59396C15.3312 7.37011 15.3333 9.68537 15.3333 12.6375H17.3333ZM18.81 2.80576C19.4458 2.23214 20.2889 1.96581 21.7675 2.00348C23.2814 2.04206 25.2653 2.39096 28.0599 2.88673L28.4092 0.917484C25.6787 0.433058 23.5188 0.0474558 21.8184 0.00413001C20.0828 -0.0400946 18.6412 0.264269 17.4702 1.32085L18.81 2.80576ZM28.0596 2.88668L34.014 3.94489L34.364 1.97574L28.4095 0.917536L28.0596 2.88668ZM34.0145 3.94497C37.1 4.49177 39.3177 4.88716 40.9968 5.41931C42.644 5.94137 43.6594 6.56225 44.4006 7.49349L45.9654 6.24797C44.8896 4.89639 43.467 4.10417 41.601 3.51277C39.7668 2.93148 37.396 2.51306 34.3635 1.97565L34.0145 3.94497ZM44.4002 7.49305C45.1471 8.4324 45.5637 9.62157 45.7797 11.4638C45.9984 13.329 46 15.7373 46 19.0648H48C48 15.7856 48.0016 13.2396 47.7661 11.2308C47.5278 9.199 47.0359 7.59446 45.9658 6.2484L44.4002 7.49305ZM46 19.0648V34.9378H48V19.0648H46ZM46 34.9378C46 38.264 45.9984 40.6717 45.78 42.5367C45.5643 44.3788 45.1482 45.5681 44.4024 46.5075L45.9687 47.7511C47.0374 46.405 47.5285 44.8007 47.7664 42.7693C48.0016 40.761 48 38.2157 48 34.9378H46ZM44.4036 46.506C43.6611 47.4375 42.6443 48.0585 40.9958 48.581C39.3155 49.1136 37.0971 49.5096 34.0115 50.0577L34.3613 52.0269C37.3938 51.4882 39.7651 51.0691 41.6 50.4875C43.4667 49.8959 44.8905 49.1039 45.9675 47.7526L44.4036 46.506ZM34.0117 50.0577L28.0624 51.1133L28.4118 53.0825L34.3611 52.0269L34.0117 50.0577ZM28.0624 51.1133C25.2679 51.609 23.2839 51.9579 21.77 51.9965C20.2914 52.0342 19.4483 51.7679 18.8126 51.1942L17.4728 52.6791C18.6438 53.7357 20.0853 54.0401 21.821 53.9959C23.5213 53.9525 25.6812 53.5669 28.4118 53.0825L28.0624 51.1133ZM18.812 51.1938C18.1631 50.6091 17.7633 49.7346 17.5507 48.1416C17.3354 46.5288 17.3333 44.3721 17.3333 41.3625H15.3333C15.3333 44.3146 15.3312 46.63 15.5683 48.4062C15.808 50.2024 16.3129 51.6341 17.4733 52.6796L18.812 51.1938ZM17.3333 41.3625V12.6375H15.3333V41.3625H17.3333ZM23 24.4V29.6H25V24.4H23Z" fill="#958DB1"/>
</svg>
