<svg width="12" height="16" viewBox="0 0 12 16" fill="none" xmlns="http://www.w3.org/2000/svg">
<path d="M9.18684e-07 0.800481L2.89222e-07 15.2009C0.000459 15.3467 0.0407412 15.4896 0.116511 15.6142C0.192281 15.7389 0.300669 15.8405 0.430009 15.9083C0.55935 15.976 0.704746 16.0072 0.850544 15.9986C0.996342 15.99 1.13702 15.9418 1.25744 15.8593L11.676 8.6591C12.108 8.3607 12.108 7.64228 11.676 7.34307L1.25744 0.142863C1.13727 0.0595201 0.996523 0.0106461 0.850482 0.0015507C0.704441 -0.00754474 0.558696 0.0234863 0.429081 0.0912722C0.299466 0.159058 0.190939 0.261006 0.115292 0.386041C0.0396452 0.511075 -0.00022891 0.654413 9.18684e-07 0.800481ZM9.8119 8.00069L1.60286 13.6744L1.60286 2.32692L9.8119 8.00069Z" fill="#9450E0"/>
</svg>
