<svg width="11" height="10" viewBox="0 0 11 10" fill="none" xmlns="http://www.w3.org/2000/svg">
<path d="M5.1579 6.31363H9.35C9.49587 6.31363 9.63576 6.2582 9.73891 6.15953C9.84205 6.06086 9.9 5.92703 9.9 5.78749V1.57841C9.9 1.43887 9.84205 1.30504 9.73891 1.20637C9.63576 1.1077 9.49587 1.05227 9.35 1.05227H1.65C1.50413 1.05227 1.36424 1.1077 1.26109 1.20637C1.15795 1.30504 1.1 1.43887 1.1 1.57841V5.78749C1.1 5.92703 1.15795 6.06086 1.26109 6.15953C1.36424 6.2582 1.50413 6.31363 1.65 6.31363C1.79587 6.31363 1.93576 6.36906 2.03891 6.46773C2.14205 6.5664 2.2 6.70022 2.2 6.83976V8.42501L5.1579 6.31363ZM1.65 0H9.35C9.78761 0 10.2073 0.166296 10.5167 0.462305C10.8262 0.758313 11 1.15979 11 1.57841V5.78749C11 6.20611 10.8262 6.60759 10.5167 6.90359C10.2073 7.1996 9.78761 7.3659 9.35 7.3659H5.5231L1.9789 9.89556C1.89711 9.95394 1.79995 9.98939 1.6983 9.99797C1.59664 10.0065 1.4945 9.98789 1.40329 9.9441C1.31209 9.90031 1.23542 9.83311 1.18185 9.75002C1.12829 9.66693 1.09995 9.57122 1.1 9.4736V7.3659C0.808262 7.3659 0.528473 7.25503 0.322183 7.0577C0.115893 6.86036 0 6.59271 0 6.31363V1.57841C0 1.15979 0.173839 0.758313 0.483274 0.462305C0.792709 0.166296 1.21239 0 1.65 0Z" fill="#B4B4B4"/>
</svg>
