<svg width="14" height="13" viewBox="0 0 14 13" fill="none" xmlns="http://www.w3.org/2000/svg">
<path d="M4.60984 3.9246L6.42877 0.344803C6.48171 0.241203 6.56315 0.154066 6.66393 0.093163C6.76472 0.0322602 6.88087 0 6.99937 0C7.11787 0 7.23402 0.0322602 7.33481 0.093163C7.43559 0.154066 7.51702 0.241203 7.56997 0.344803L9.3889 3.9246L13.4552 4.50207C13.5725 4.51797 13.6829 4.56577 13.7737 4.64002C13.8645 4.71427 13.9321 4.81198 13.9689 4.92199C14.0056 5.032 14.0099 5.14989 13.9814 5.2622C13.9528 5.3745 13.8925 5.4767 13.8074 5.55713L10.8655 8.34187L11.56 12.2761C11.6489 12.781 11.1028 13.1656 10.6358 12.9275L6.99937 11.0691L3.36222 12.9275C2.89593 13.1662 2.34984 12.781 2.43875 12.2754L3.13328 8.34118L0.19135 5.55644C0.106625 5.47596 0.0467029 5.37387 0.018394 5.26176C-0.00991491 5.14966 -0.00547469 5.03204 0.0312098 4.92228C0.0678943 4.81252 0.135352 4.71501 0.225914 4.64085C0.316477 4.56669 0.426512 4.51885 0.543513 4.50276L4.60984 3.9246Z" fill="#FFE927"/>
</svg>
