<svg width="11" height="11" viewBox="0 0 11 11" fill="none" xmlns="http://www.w3.org/2000/svg">
<path d="M1.9525 8.51229C2.53 8.11278 3.10292 7.80634 3.67125 7.59297C4.23958 7.37959 4.84917 7.2729 5.5 7.2729C6.15083 7.2729 6.76271 7.37959 7.33563 7.59297C7.90854 7.80634 8.48375 8.11278 9.06125 8.51229C9.46458 8.02199 9.75104 7.52714 9.92062 7.02775C10.0902 6.52836 10.175 6.00173 10.175 5.44787C10.175 4.1313 9.72812 3.03038 8.83438 2.1451C7.94063 1.25982 6.82917 0.81718 5.5 0.81718C4.17083 0.81718 3.05938 1.25982 2.16563 2.1451C1.27188 3.03038 0.825 4.1313 0.825 5.44787C0.825 6.00173 0.912083 6.52836 1.08625 7.02775C1.26042 7.52714 1.54917 8.02199 1.9525 8.51229ZM5.49744 5.85646C4.96748 5.85646 4.52146 5.67629 4.15938 5.31595C3.79729 4.95561 3.61625 4.51297 3.61625 3.98803C3.61625 3.46309 3.79814 3.0213 4.16193 2.66265C4.52572 2.30399 4.9726 2.12467 5.50256 2.12467C6.03252 2.12467 6.47854 2.30484 6.84062 2.66518C7.20271 3.02552 7.38375 3.46816 7.38375 3.9931C7.38375 4.51803 7.20186 4.95983 6.83807 5.31848C6.47428 5.67713 6.0274 5.85646 5.49744 5.85646ZM5.50643 10.8957C4.75048 10.8957 4.03792 10.7527 3.36875 10.4667C2.69958 10.1807 2.11521 9.79027 1.61563 9.29542C1.11604 8.80058 0.721875 8.2228 0.433125 7.5621C0.144375 6.9014 0 6.19545 0 5.44424C0 4.69304 0.144375 3.98829 0.433125 3.33001C0.721875 2.67173 1.11604 2.09516 1.61563 1.60031C2.11521 1.10546 2.69851 0.715033 3.36553 0.42902C4.03255 0.143007 4.74526 0 5.50366 0C6.26205 0 6.97354 0.143007 7.63812 0.42902C8.30271 0.715033 8.88479 1.10546 9.38437 1.60031C9.88396 2.09516 10.2781 2.67187 10.5669 3.33044C10.8556 3.98902 11 4.6927 11 5.44149C11 6.19028 10.8556 6.89609 10.5669 7.55892C10.2781 8.22174 9.88396 8.80058 9.38437 9.29542C8.88479 9.79027 8.30256 10.1807 7.63769 10.4667C6.97281 10.7527 6.26239 10.8957 5.50643 10.8957ZM5.5 10.0786C6.00417 10.0786 6.49687 10.0059 6.97813 9.86064C7.45937 9.71536 7.93375 9.46113 8.40125 9.09794C7.93375 8.77107 7.45708 8.52137 6.97125 8.34886C6.48542 8.17634 5.995 8.09008 5.5 8.09008C5.005 8.09008 4.51458 8.17634 4.02875 8.34886C3.54292 8.52137 3.06625 8.77107 2.59875 9.09794C3.06625 9.46113 3.54063 9.71536 4.02187 9.86064C4.50313 10.0059 4.99583 10.0786 5.5 10.0786ZM5.5 5.03928C5.81167 5.03928 6.06604 4.94167 6.26312 4.74645C6.46021 4.55124 6.55875 4.29928 6.55875 3.99056C6.55875 3.68185 6.46021 3.42989 6.26312 3.23467C6.06604 3.03946 5.81167 2.94185 5.5 2.94185C5.18833 2.94185 4.93396 3.03946 4.73688 3.23467C4.53979 3.42989 4.44125 3.68185 4.44125 3.99056C4.44125 4.29928 4.53979 4.55124 4.73688 4.74645C4.93396 4.94167 5.18833 5.03928 5.5 5.03928Z" fill="white"/>
</svg>
