<svg width="18" height="19" viewBox="0 0 18 19" fill="none" xmlns="http://www.w3.org/2000/svg">
<path fill-rule="evenodd" clip-rule="evenodd" d="M11.3217 0.873759C10.6741 0.309771 9.85106 0 9.00019 0C8.14932 0 7.32628 0.309771 6.67867 0.873759L6.34223 1.16636C6.05571 1.41614 5.69937 1.56717 5.32397 1.59795L4.88284 1.63453C4.03455 1.70351 3.23807 2.0791 2.63627 2.69392C2.03446 3.30874 1.66671 4.12257 1.59898 4.98942L1.56408 5.44021C1.53421 5.82374 1.38673 6.18786 1.14263 6.48078L0.855409 6.82459C0.303274 7.48645 0 8.32771 0 9.19743C0 10.0671 0.303274 10.9084 0.855409 11.5703L1.14174 11.9141C1.38616 12.2069 1.53395 12.571 1.56408 12.9546L1.59987 13.4054C1.66737 14.2723 2.03491 15.0862 2.63655 15.7012C3.23819 16.3162 4.03457 16.692 4.88284 16.7612L5.32397 16.7969C5.69927 16.8274 6.05559 16.9781 6.34223 17.2276L6.67867 17.5202C7.32634 18.0844 8.14956 18.3943 9.00064 18.3943C9.85171 18.3943 10.6749 18.0844 11.3226 17.5202L11.659 17.2276C11.9457 16.9781 12.302 16.8274 12.6773 16.7969L13.1184 16.7603C13.9667 16.6913 14.7632 16.3158 15.365 15.7009C15.9668 15.0861 16.3346 14.2723 16.4023 13.4054L16.4363 12.9546C16.4664 12.571 16.6142 12.2069 16.8586 11.9141L17.145 11.5693C17.6969 10.9076 18 10.0665 18 9.19697C18 8.32746 17.6969 7.48639 17.145 6.82459L16.8586 6.48078C16.6142 6.18798 16.4664 5.82384 16.4363 5.44021L16.4014 4.98942C16.3339 4.12255 15.9664 3.30862 15.3647 2.69363C14.7631 2.07864 13.9667 1.70283 13.1184 1.63361L12.6773 1.59795C12.302 1.56743 11.9457 1.41672 11.659 1.16728L11.3217 0.873759ZM7.8401 2.26637C8.16387 1.9845 8.5753 1.82969 9.00064 1.82969C9.42597 1.82969 9.8374 1.9845 10.1612 2.26637L10.4985 2.55989C11.0717 3.05911 11.7843 3.36084 12.535 3.42216L12.9762 3.45873C13.4001 3.49342 13.798 3.68124 14.0988 3.98853C14.3995 4.29583 14.5833 4.70252 14.6172 5.13572L14.653 5.58651C14.713 6.35367 15.0083 7.08193 15.4968 7.66766L15.7831 8.01238C16.0589 8.34325 16.2104 8.76369 16.2104 9.19834C16.2104 9.633 16.0589 10.0534 15.7831 10.3843L15.4968 10.729C15.0083 11.3147 14.713 12.043 14.653 12.8102L14.6172 13.261C14.5833 13.6942 14.3995 14.1009 14.0988 14.4081C13.798 14.7154 13.4001 14.9033 12.9762 14.938L12.535 14.9745C11.7843 15.0358 11.0717 15.3376 10.4985 15.8368L10.1612 16.1294C9.8374 16.4113 9.42597 16.5661 9.00064 16.5661C8.5753 16.5661 8.16387 16.4113 7.8401 16.1294L7.50277 15.8368C6.9296 15.3376 6.21695 15.0358 5.46624 14.9745L5.02511 14.938C4.60104 14.9035 4.20285 14.7157 3.90196 14.4084C3.60107 14.1011 3.41715 13.6943 3.38318 13.261L3.34739 12.8102C3.28764 12.0431 2.99269 11.3149 2.5045 10.729L2.21817 10.3843C1.94234 10.0534 1.79084 9.633 1.79084 9.19834C1.79084 8.76369 1.94234 8.34325 2.21817 8.01238L2.5045 7.66766C2.99301 7.08193 3.28828 6.35367 3.34828 5.58651L3.38407 5.13572C3.41781 4.70236 3.60151 4.29545 3.90224 3.98797C4.20297 3.68048 4.60105 3.49253 5.02511 3.45782L5.46624 3.42216C6.21695 3.36084 6.9296 3.05911 7.50277 2.55989L7.8401 2.26637ZM12.3176 7.10165C12.4031 7.0173 12.4712 6.91641 12.5181 6.80485C12.565 6.69329 12.5897 6.5733 12.5907 6.45189C12.5918 6.33048 12.5691 6.21007 12.5241 6.0977C12.4792 5.98532 12.4127 5.88323 12.3287 5.79737C12.2447 5.71152 12.1448 5.64362 12.0348 5.59765C11.9248 5.55167 11.807 5.52854 11.6882 5.52959C11.5694 5.53065 11.452 5.55587 11.3428 5.60379C11.2337 5.65171 11.1349 5.72137 11.0524 5.80871L5.68367 11.295C5.59821 11.3794 5.53004 11.4803 5.48315 11.5918C5.43625 11.7034 5.41157 11.8234 5.41054 11.9448C5.4095 12.0662 5.43214 12.1866 5.47713 12.299C5.52212 12.4114 5.58856 12.5135 5.67258 12.5993C5.75659 12.6852 5.8565 12.7531 5.96646 12.799C6.07643 12.845 6.19425 12.8681 6.31306 12.8671C6.43187 12.866 6.54928 12.8408 6.65845 12.7929C6.76762 12.745 6.86635 12.6753 6.94889 12.588L12.3176 7.10165ZM8.10585 6.91146C8.10585 7.27523 7.96444 7.62409 7.71274 7.88131C7.46103 8.13853 7.11964 8.28304 6.76367 8.28304C6.40771 8.28304 6.06632 8.13853 5.81461 7.88131C5.5629 7.62409 5.4215 7.27523 5.4215 6.91146C5.4215 6.54769 5.5629 6.19883 5.81461 5.94161C6.06632 5.68438 6.40771 5.53988 6.76367 5.53988C7.11964 5.53988 7.46103 5.68438 7.71274 5.94161C7.96444 6.19883 8.10585 6.54769 8.10585 6.91146ZM11.2376 12.855C11.5936 12.855 11.935 12.7105 12.1867 12.4533C12.4384 12.196 12.5798 11.8472 12.5798 11.4834C12.5798 11.1196 12.4384 10.7708 12.1867 10.5135C11.935 10.2563 11.5936 10.1118 11.2376 10.1118C10.8816 10.1118 10.5402 10.2563 10.2885 10.5135C10.0368 10.7708 9.89542 11.1196 9.89542 11.4834C9.89542 11.8472 10.0368 12.196 10.2885 12.4533C10.5402 12.7105 10.8816 12.855 11.2376 12.855Z" fill="#958DB1"/>
</svg>
