<svg width="43" height="43" viewBox="0 0 43 43" fill="none" xmlns="http://www.w3.org/2000/svg">
<path d="M11.3158 43C11.3158 40.5991 12.2695 38.2965 13.9672 36.5988C15.6649 34.9011 17.9675 33.9474 20.3684 33.9474V31.6842C17.7598 31.6847 15.2311 30.784 13.2103 29.1343C11.1895 27.4847 9.80067 25.1875 9.27895 22.6316H6.78947C4.98879 22.6316 3.26186 21.9163 1.98859 20.643C0.715318 19.3697 0 17.6428 0 15.8421V4.52632H4.52632C6.26895 4.52632 7.85316 5.18263 9.05263 6.24632V0H33.9474V6.24632C35.1468 5.18263 36.7311 4.52632 38.4737 4.52632H43V15.8421C43 17.6428 42.2847 19.3697 41.0114 20.643C39.7381 21.9163 38.0112 22.6316 36.2105 22.6316H33.7211C33.1993 25.1875 31.8105 27.4847 29.7897 29.1343C27.7689 30.784 25.2402 31.6847 22.6316 31.6842V33.9474C25.0325 33.9474 27.3351 34.9011 29.0328 36.5988C30.7305 38.2965 31.6842 40.5991 31.6842 43H11.3158ZM22.6316 36.2105H20.3684C17.4037 36.2105 14.8916 38.0889 13.9637 40.7368H29.0363C28.571 39.4107 27.7043 38.2623 26.5565 37.4512C25.4088 36.6401 24.037 36.2065 22.6316 36.2105ZM31.6842 2.26316H11.3158V20.3684C11.3158 22.7693 12.2695 25.0719 13.9672 26.7696C15.6649 28.4673 17.9675 29.4211 20.3684 29.4211H22.6316C25.0325 29.4211 27.3351 28.4673 29.0328 26.7696C30.7305 25.0719 31.6842 22.7693 31.6842 20.3684V2.26316ZM40.7368 15.8421V6.78947H38.4737C37.2732 6.78947 36.1219 7.26635 35.2731 8.1152C34.4242 8.96405 33.9474 10.1153 33.9474 11.3158V20.3684H36.2105C37.411 20.3684 38.5623 19.8915 39.4111 19.0427C40.26 18.1938 40.7368 17.0426 40.7368 15.8421ZM2.26316 15.8421C2.26316 17.0426 2.74004 18.1938 3.58888 19.0427C4.43773 19.8915 5.58902 20.3684 6.78947 20.3684H9.05263V11.3158C9.05263 10.1153 8.57575 8.96405 7.7269 8.1152C6.87806 7.26635 5.72677 6.78947 4.52632 6.78947H2.26316V15.8421Z" fill="white"/>
</svg>
