<svg width="14" height="12" viewBox="0 0 14 12" fill="none" xmlns="http://www.w3.org/2000/svg">
<path d="M13.4614 11.5H13.4615C13.4767 11.5 13.4882 11.494 13.4943 11.4881C13.4999 11.4827 13.5 11.4788 13.5 11.4782C13.5 9.15634 13.0179 7.3637 12.1228 6.10003L12.1228 6.1C11.0553 4.59268 9.35698 3.74657 6.97687 3.6405L6.49913 3.61921V3.141V0.521648C6.49911 0.520807 6.49885 0.518821 6.49681 0.515835L6.90973 0.233883L6.49681 0.515834C6.49451 0.512467 6.48962 0.507542 6.48099 0.503958C6.47224 0.500326 6.46168 0.498991 6.45119 0.500804C6.44098 0.502571 6.43337 0.506852 6.42866 0.511066C6.42856 0.511156 6.42846 0.511245 6.42837 0.511335L0.506183 5.98882C0.506162 5.98884 0.506141 5.98886 0.50612 5.98888C0.503037 5.99175 0.501517 5.99431 0.500807 5.99591C0.500112 5.99749 0.5 5.99856 0.5 5.9992C0.5 5.99985 0.500112 6.00092 0.500807 6.00249C0.501517 6.0041 0.503038 6.00666 0.50612 6.00952C0.506141 6.00954 0.506162 6.00956 0.506183 6.00958L6.42837 11.4871C6.42846 11.4872 6.42856 11.4872 6.42866 11.4873C6.43337 11.4916 6.44098 11.4958 6.45119 11.4976C6.46168 11.4994 6.47224 11.4981 6.48099 11.4944C6.48962 11.4909 6.49451 11.4859 6.49681 11.4826C6.49885 11.4796 6.49911 11.4776 6.49913 11.4768V8.87665V8.36179L7.01377 8.37687C8.56929 8.42242 9.79331 8.66733 10.7929 9.16715L10.7934 9.16742C11.8752 9.70997 12.6436 10.5145 13.4263 11.4857M13.4614 11.5L13.037 11.7994M13.4614 11.5C13.453 11.5 13.4453 11.4981 13.439 11.4951L13.2254 11.9472M13.4614 11.5L13.2254 11.9472M13.4263 11.4857L13.037 11.7994M13.4263 11.4857C13.4263 11.4856 13.4263 11.4856 13.4263 11.4856L13.037 11.7994M13.4263 11.4857C13.4287 11.4886 13.4327 11.4922 13.439 11.4951L13.2254 11.9472M13.037 11.7994C13.0874 11.8619 13.1518 11.9124 13.2254 11.9472M6.99913 8.87665C7.17047 8.88167 7.33707 8.88916 7.49913 8.89916V8.87665H6.99913ZM6.99913 8.87665L6.9845 9.37644C6.98938 9.37658 6.99426 9.37672 6.99913 9.37687V8.87665Z" stroke="#B4B4B4"/>
</svg>
