<svg width="15" height="9" viewBox="0 0 15 9" fill="none" xmlns="http://www.w3.org/2000/svg">
<path d="M11.875 7.71429V9H4.375V7.71429C4.375 7.71429 4.375 5.14286 8.125 5.14286C11.875 5.14286 11.875 7.71429 11.875 7.71429ZM10 1.92857C10 1.54714 9.89003 1.17427 9.68401 0.857115C9.47798 0.539963 9.18514 0.292774 8.84253 0.146805C8.49992 0.000835623 8.12292 -0.0373565 7.75921 0.0370578C7.39549 0.111472 7.0614 0.295151 6.79917 0.564866C6.53695 0.834582 6.35837 1.17822 6.28603 1.55233C6.21368 1.92643 6.25081 2.3142 6.39273 2.6666C6.53464 3.019 6.77496 3.32021 7.08331 3.53212C7.39165 3.74403 7.75416 3.85714 8.125 3.85714C8.62228 3.85714 9.09919 3.65396 9.45083 3.29228C9.80246 2.9306 10 2.44006 10 1.92857ZM12 5.18143C12.3416 5.50562 12.6171 5.89657 12.8102 6.33144C13.0034 6.76632 13.1104 7.23641 13.125 7.71429V9H15V7.71429C15 7.71429 15 5.49643 12 5.18143ZM11.25 7.3359e-07C11.0612 0.000116971 10.8735 0.0304807 10.6938 0.0900006C11.0594 0.629338 11.2555 1.27105 11.2555 1.92857C11.2555 2.5861 11.0594 3.22781 10.6938 3.76714C10.8735 3.82666 11.0612 3.85703 11.25 3.85714C11.7473 3.85714 12.2242 3.65396 12.5758 3.29228C12.9275 2.9306 13.125 2.44006 13.125 1.92857C13.125 1.41708 12.9275 0.926543 12.5758 0.564866C12.2242 0.203189 11.7473 7.3359e-07 11.25 7.3359e-07ZM5 3.21429H3.125V1.28571H1.875V3.21429H0V4.5H1.875V6.42857H3.125V4.5H5V3.21429Z" fill="#9450E0"/>
</svg>
