<svg width="20" height="25" viewBox="0 0 20 25" fill="none" xmlns="http://www.w3.org/2000/svg">
<path d="M17.5 0C18.163 0 18.7989 0.263392 19.2678 0.732233C19.7366 1.20107 20 1.83696 20 2.5V16.9825C19.9999 17.6455 19.7364 18.2813 19.2675 18.75L13.75 24.2675C13.2813 24.7364 12.6455 24.9999 11.9825 25H2.5C1.83696 25 1.20107 24.7366 0.732233 24.2678C0.263392 23.7989 0 23.163 0 22.5V2.5C0 1.83696 0.263392 1.20107 0.732233 0.732233C1.20107 0.263392 1.83696 0 2.5 0H17.5ZM17.5 2.5H2.5V22.5H10V16.875C10 16.3777 10.1975 15.9008 10.5492 15.5492C10.9008 15.1975 11.3777 15 11.875 15H17.5V2.5ZM16.9825 17.5H12.5V21.9825L16.9825 17.5ZM7.5 11.25C7.83152 11.25 8.14946 11.3817 8.38388 11.6161C8.6183 11.8505 8.75 12.1685 8.75 12.5C8.75 12.8315 8.6183 13.1495 8.38388 13.3839C8.14946 13.6183 7.83152 13.75 7.5 13.75H6.25C5.91848 13.75 5.60054 13.6183 5.36612 13.3839C5.1317 13.1495 5 12.8315 5 12.5C5 12.1685 5.1317 11.8505 5.36612 11.6161C5.60054 11.3817 5.91848 11.25 6.25 11.25H7.5ZM13.75 6.25C14.0815 6.25 14.3995 6.3817 14.6339 6.61612C14.8683 6.85054 15 7.16848 15 7.5C15 7.83152 14.8683 8.14946 14.6339 8.38388C14.3995 8.6183 14.0815 8.75 13.75 8.75H6.25C5.91848 8.75 5.60054 8.6183 5.36612 8.38388C5.1317 8.14946 5 7.83152 5 7.5C5 7.16848 5.1317 6.85054 5.36612 6.61612C5.60054 6.3817 5.91848 6.25 6.25 6.25H13.75Z" fill="#FFB800"/>
</svg>
