<svg width="26" height="26" viewBox="0 0 26 26" fill="none" xmlns="http://www.w3.org/2000/svg">
<path d="M11.7101 12.3417C11.6699 10.4362 11.266 8.55588 10.5202 6.80186C5.76041 9.02409 2.26396 13.217 1.06877 18.1646C1.76822 19.7669 2.78253 21.2123 4.0515 22.4151C5.25825 18.2197 7.98988 14.6268 11.7101 12.3417ZM9.77583 5.29767C8.97856 3.90885 7.96254 2.65764 6.76689 1.59221C1.99661 4.20228 -0.823617 9.60585 0.214311 15.3344C1.96516 10.979 5.3725 7.3679 9.77583 5.29767ZM19.6099 13.9507C20.0607 8.72011 18.1788 3.59955 14.4989 0.0932511C13.7283 0.00415237 11.794 -0.195009 9.31453 0.538745C12.3482 3.68176 14.0965 7.8455 14.2159 12.2117C15.8864 13.1302 17.7174 13.7205 19.6099 13.9507ZM13.0731 14.4486C11.4426 15.4384 10.0158 16.7298 8.86895 18.2537C13.1674 21.2568 18.5406 22.1897 23.4157 20.7589C24.4643 19.3542 25.2169 17.7512 25.6278 16.0472C24.2416 16.4003 22.8175 16.5834 21.387 16.5922C18.5248 16.587 15.6784 15.8532 13.0731 14.4486ZM7.92014 19.674C7.12335 21.0367 6.57293 22.5252 6.23744 24.087C8.56278 25.514 11.2795 26.1703 13.9999 25.9623C16.7204 25.7543 19.3057 24.6926 21.387 22.9287C15.4687 23.7726 10.7299 21.6289 7.92014 19.674ZM17.3716 0.774594C20.2704 4.46433 21.6963 9.22325 21.2821 14.066C22.8791 14.0694 24.4664 13.8182 25.9843 13.3218C25.9843 13.217 26 13.1121 26 13.0073C26 7.35742 22.3987 2.57229 17.3716 0.774594Z" fill="#3346AC"/>
</svg>
