<svg width="16" height="15" viewBox="0 0 16 15" fill="none" xmlns="http://www.w3.org/2000/svg">
<path d="M5.60984 4.9246L7.42877 1.3448C7.48171 1.2412 7.56315 1.15407 7.66393 1.09316C7.76472 1.03226 7.88087 1 7.99937 1C8.11787 1 8.23402 1.03226 8.33481 1.09316C8.43559 1.15407 8.51702 1.2412 8.56997 1.3448L10.3889 4.9246L14.4552 5.50207C14.5725 5.51797 14.6829 5.56577 14.7737 5.64002C14.8645 5.71427 14.9321 5.81198 14.9689 5.92199C15.0056 6.032 15.0099 6.14989 14.9814 6.2622C14.9528 6.3745 14.8925 6.4767 14.8074 6.55713L11.8655 9.34187L12.56 13.2761C12.6489 13.781 12.1028 14.1656 11.6358 13.9275L7.99937 12.0691L4.36222 13.9275C3.89593 14.1662 3.34984 13.781 3.43875 13.2754L4.13328 9.34118L1.19135 6.55644C1.10663 6.47596 1.0467 6.37387 1.01839 6.26176C0.990085 6.14966 0.994525 6.03204 1.03121 5.92228C1.06789 5.81252 1.13535 5.71501 1.22591 5.64085C1.31648 5.56669 1.42651 5.51885 1.54351 5.50276L5.60984 4.9246Z" stroke="#832EB7" stroke-width="1.5" stroke-linecap="round" stroke-linejoin="round"/>
</svg>
