<svg width="35" height="34" viewBox="0 0 35 34" fill="none" xmlns="http://www.w3.org/2000/svg">
<path d="M17.1282 0C12.6205 0 8.29349 1.79217 5.10864 4.97914C1.92051 8.16737 0.129057 12.4912 0.128174 17C0.128174 21.5069 1.92114 25.8339 5.10864 29.0209C8.29349 32.2078 12.6205 34 17.1282 34C21.6358 34 25.9629 32.2078 29.1477 29.0209C32.3352 25.8339 34.1282 21.5069 34.1282 17C34.1282 12.4931 32.3352 8.16611 29.1477 4.97914C25.9629 1.79217 21.6358 0 17.1282 0Z" fill="url(#paint0_linear_284_2295)"/>
<path d="M7.48909 16.8421C12.4044 14.7508 15.6814 13.3719 17.3198 12.7058C22.0034 10.8036 22.9754 10.4732 23.6102 10.462C23.7498 10.4598 24.0606 10.4935 24.2635 10.6537C24.4321 10.7888 24.4795 10.9715 24.5032 11.0997C24.5243 11.2279 24.5532 11.5199 24.5295 11.7479C24.2766 14.3517 23.1782 20.6705 22.6198 23.5869C22.3853 24.821 21.9191 25.2347 21.4686 25.2751C20.4887 25.3631 19.7459 24.6432 18.7976 24.0362C17.3145 23.086 16.4769 22.4947 15.036 21.5677C13.3712 20.4963 14.4512 19.9073 15.3995 18.945C15.6471 18.6931 19.9619 14.8607 20.0435 14.5131C20.0541 14.4696 20.0646 14.3075 19.9645 14.222C19.867 14.1364 19.7222 14.1657 19.6168 14.1889C19.4667 14.2218 17.0985 15.7522 12.5045 18.7798C11.8328 19.2311 11.2243 19.4511 10.6764 19.4395C10.0758 19.4269 8.91681 19.1071 8.05543 18.8339C7.00177 18.4986 6.16147 18.3213 6.23522 17.7519C6.2721 17.4555 6.69093 17.1522 7.48909 16.8421Z" fill="white"/>
<defs>
<linearGradient id="paint0_linear_284_2295" x1="1700.13" y1="0" x2="1700.13" y2="3400" gradientUnits="userSpaceOnUse">
<stop stop-color="#2AABEE"/>
<stop offset="1" stop-color="#229ED9"/>
</linearGradient>
</defs>
</svg>
