<svg width="10" height="10" viewBox="0 0 10 10" fill="none" xmlns="http://www.w3.org/2000/svg">
<circle cx="5" cy="5" r="5" transform="rotate(-180 5 5)" fill="white"/>
<path d="M2.13207 6.84704C2.21666 6.94498 2.33137 7 2.45098 7C2.57059 7 2.6853 6.94498 2.76989 6.84704L5.00272 4.26103L7.23555 6.84704C7.32063 6.94221 7.43457 6.99486 7.55284 6.99367C7.67111 6.99248 7.78425 6.93754 7.86788 6.84068C7.95152 6.74382 7.99896 6.61278 7.99998 6.47581C8.00101 6.33883 7.95554 6.20686 7.87338 6.10833L5.32163 3.15296C5.23705 3.05502 5.12233 3 5.00272 3C4.88311 3 4.7684 3.05502 4.68381 3.15296L2.13207 6.10833C2.0475 6.2063 2 6.33916 2 6.47768C2 6.61621 2.0475 6.74907 2.13207 6.84704Z" fill="#1E1443"/>
</svg>
