<svg width="25" height="25" viewBox="0 0 25 25" fill="none" xmlns="http://www.w3.org/2000/svg">
<g clip-path="url(#clip0_401_1125)">
<path d="M13.3337 25.0003C11.3539 25.0003 9.44477 24.417 7.60639 23.2503C5.768 22.0837 4.31851 20.7491 3.2579 19.2465V22.8791H1.66699V16.5155H8.03063V18.1064H4.39805C5.29957 19.4675 6.58555 20.6916 8.25601 21.7787C9.92646 22.8659 11.619 23.4094 13.3337 23.4094C14.7124 23.4094 16.0161 23.1443 17.2446 22.614C18.4732 22.0837 19.5426 21.3633 20.453 20.453C21.3633 19.5426 22.0837 18.4732 22.614 17.2446C23.1443 16.0161 23.4094 14.7124 23.4094 13.3337H25.0003C25.0003 14.9422 24.6954 16.4536 24.0856 17.8678C23.4757 19.2819 22.6405 20.5193 21.5799 21.5799C20.5193 22.6405 19.2819 23.4757 17.8678 24.0856C16.4536 24.6954 14.9422 25.0003 13.3337 25.0003ZM12.5647 20.9435V19.5117C11.7693 19.2996 11.102 18.9593 10.5628 18.4909C10.0237 18.0224 9.56851 17.3816 9.1973 16.5685L10.5496 16.1178C10.7617 16.7895 11.1373 17.3198 11.6765 17.7087C12.2156 18.0975 12.8299 18.292 13.5193 18.292C14.2263 18.292 14.8141 18.1196 15.2825 17.7749C15.751 17.4303 15.9852 16.9751 15.9852 16.4094C15.9852 15.8261 15.7642 15.3356 15.3223 14.9378C14.8804 14.5401 14.0672 14.0938 12.8829 13.5988C11.8223 13.1569 11.0268 12.6796 10.4965 12.167C9.96624 11.6544 9.70108 10.965 9.70108 10.0988C9.70108 9.32103 9.96624 8.65815 10.4965 8.11017C11.0268 7.56219 11.7339 7.22634 12.6178 7.1026V5.75033H14.0761V7.1026C14.7478 7.17331 15.3311 7.38543 15.8261 7.73896C16.321 8.0925 16.7188 8.57861 17.0193 9.1973L15.7465 9.80714C15.4814 9.31219 15.1544 8.94098 14.7655 8.69351C14.3766 8.44603 13.917 8.3223 13.3867 8.3223C12.6973 8.3223 12.1537 8.48139 11.756 8.79957C11.3583 9.11775 11.1594 9.55083 11.1594 10.0988C11.1594 10.6645 11.3892 11.1152 11.8488 11.4511C12.3084 11.7869 13.0508 12.167 14.0761 12.5912C15.2958 13.1039 16.1619 13.643 16.6746 14.2087C17.1872 14.7743 17.4435 15.5079 17.4435 16.4094C17.4435 16.8513 17.364 17.2579 17.2049 17.6291C17.0458 18.0003 16.8204 18.3185 16.5287 18.5837C16.2371 18.8488 15.8791 19.0654 15.4549 19.2333C15.0306 19.4012 14.5534 19.5117 14.0231 19.5647V20.9435H12.5647ZM1.66699 13.3337C1.66699 11.7251 1.97192 10.2137 2.58176 8.79957C3.19161 7.38543 4.02684 6.14805 5.08745 5.08745C6.14805 4.02684 7.38543 3.19161 8.79957 2.58176C10.2137 1.97192 11.7251 1.66699 13.3337 1.66699C15.3135 1.66699 17.2225 2.25033 19.0609 3.41699C20.8993 4.58366 22.3488 5.91825 23.4094 7.42078V3.7882H25.0003V10.1518H18.6367V8.56093H22.2693C21.3678 7.19982 20.0862 5.9757 18.4246 4.88858C16.763 3.80146 15.066 3.2579 13.3337 3.2579C11.9549 3.2579 10.6512 3.52305 9.42267 4.05336C8.19414 4.58366 7.12469 5.30399 6.21434 6.21434C5.30399 7.12469 4.58366 8.19414 4.05336 9.42267C3.52305 10.6512 3.2579 11.9549 3.2579 13.3337H1.66699Z" fill="#FFB800"/>
</g>
<defs>
<clipPath id="clip0_401_1125">
<rect width="25" height="25" fill="white"/>
</clipPath>
</defs>
</svg>
