<svg width="13" height="24" viewBox="0 0 13 24" fill="none" xmlns="http://www.w3.org/2000/svg">
<path d="M12.494 15.867L12.495 15.959C12.4966 17.2331 12.0194 18.4612 11.158 19.4L11.161 19.396C10.2637 20.3843 9.05022 21.0293 7.72903 21.22L7.69803 21.224V23.584C7.69803 23.6935 7.65452 23.7986 7.57707 23.876C7.49961 23.9535 7.39456 23.997 7.28503 23.997H5.46203C5.34866 23.9957 5.24029 23.9501 5.16012 23.8699C5.07994 23.7897 5.03433 23.6814 5.03303 23.568V21.224C4.43042 21.1435 3.8383 20.998 3.26703 20.79L3.32603 20.809C2.47271 20.5236 1.67205 20.0999 0.95603 19.555L0.97603 19.57C0.757329 19.4118 0.547354 19.2419 0.34703 19.061L0.35403 19.067C0.242697 18.9603 0.164697 18.8803 0.12003 18.827C0.047734 18.7551 0.00504952 18.6587 0.000420138 18.5569C-0.00420925 18.455 0.0295536 18.3551 0.09503 18.277L0.09403 18.278L1.47303 16.47C1.50967 16.4228 1.55606 16.3841 1.60905 16.3565C1.66203 16.3288 1.72036 16.313 1.78003 16.31H1.78103C1.84033 16.2991 1.90148 16.3046 1.95787 16.326C2.01427 16.3473 2.06377 16.3836 2.10103 16.431L2.12803 16.458C3.03219 17.2859 4.13876 17.8605 5.33603 18.124L5.38203 18.133C5.68003 18.201 6.02203 18.24 6.37303 18.24L6.43503 18.241C7.12603 18.241 7.76603 18.025 8.29303 17.657L8.28203 17.664C8.54784 17.4843 8.76315 17.2395 8.9074 16.9529C9.05166 16.6663 9.12004 16.3475 9.10603 16.027V16.031C9.10603 15.768 9.03103 15.523 8.90203 15.316L8.90503 15.322C8.78313 15.1155 8.63264 14.9273 8.45803 14.763L8.45703 14.762C8.22458 14.567 7.96898 14.4015 7.69603 14.269L7.67403 14.259C7.3167 14.0763 7.02336 13.9333 6.79403 13.83C6.5647 13.7267 6.2077 13.5817 5.72303 13.395C5.37503 13.2523 5.10036 13.1407 4.89903 13.06C4.6977 12.9793 4.42303 12.861 4.07503 12.705C3.72703 12.549 3.44803 12.4107 3.23803 12.29C3.02803 12.1693 2.7757 12.011 2.48103 11.815C2.22289 11.6487 1.98144 11.4578 1.76003 11.245L1.76103 11.246C1.56009 11.0427 1.36983 10.8291 1.19103 10.606L1.17803 10.59C0.988659 10.3604 0.831539 10.1061 0.71103 9.834L0.70303 9.813C0.586879 9.53681 0.494869 9.25107 0.42803 8.959L0.42103 8.923C0.344523 8.58774 0.306279 8.24488 0.30703 7.901V7.847C0.30703 6.597 0.80803 5.463 1.62103 4.637L1.62003 4.638C2.52623 3.69588 3.71045 3.0689 4.99903 2.849L5.03503 2.844V0.425C5.03503 0.308 5.08403 0.202 5.16203 0.127C5.20058 0.0868406 5.24685 0.0548887 5.29806 0.0330642C5.34927 0.0112396 5.40436 -7.00763e-06 5.46003 3.27691e-09H7.28703C7.51503 3.27691e-09 7.70003 0.185 7.70003 0.413V2.786C8.25003 2.844 8.75203 2.953 9.23303 3.109L9.18003 3.094C9.63903 3.234 10.025 3.387 10.396 3.565L10.344 3.543C10.672 3.706 10.951 3.873 11.215 4.059L11.195 4.045C11.4617 4.233 11.6357 4.36233 11.717 4.433C11.7984 4.50367 11.8654 4.566 11.918 4.62C11.99 4.68192 12.0365 4.76824 12.0487 4.86237C12.0608 4.95649 12.0378 5.05181 11.984 5.13L11.985 5.129L10.903 7.085C10.876 7.14512 10.8332 7.19678 10.7791 7.23447C10.7251 7.27216 10.6618 7.29447 10.596 7.299C10.5325 7.31221 10.4658 7.3106 10.403 7.29429C10.3403 7.27799 10.2821 7.24744 10.233 7.205H10.234C10.2074 7.17833 10.1427 7.125 10.04 7.045C9.93736 6.965 9.76336 6.84667 9.51803 6.69C9.28 6.53742 9.0325 6.40014 8.77703 6.279L8.73503 6.261C8.42721 6.11947 8.10725 6.00601 7.77903 5.922L7.73703 5.913C7.36425 5.81096 6.97952 5.75917 6.59303 5.759C5.85245 5.72508 5.11955 5.92979 4.50403 6.343L4.51703 6.335C4.17659 6.5612 3.92322 6.89649 3.79855 7.28575C3.67389 7.67501 3.68534 8.09511 3.83103 8.477L3.82703 8.465C3.91903 8.685 4.05303 8.871 4.22103 9.02L4.22303 9.021C4.38403 9.172 4.55603 9.317 4.73603 9.452L4.75203 9.463C4.96703 9.611 5.21403 9.75 5.47303 9.866L5.50303 9.878C5.8377 10.034 6.1077 10.1547 6.31303 10.24C6.51836 10.3253 6.83103 10.448 7.25103 10.608C7.72436 10.7867 8.08603 10.9273 8.33603 11.03C8.58603 11.1327 8.92536 11.289 9.35403 11.499C9.71511 11.6686 10.0631 11.8648 10.395 12.086L10.366 12.068C10.676 12.288 10.946 12.508 11.203 12.743L11.197 12.737C11.474 12.979 11.71 13.259 11.898 13.572L11.907 13.588C12.073 13.881 12.216 14.222 12.32 14.579L12.329 14.613C12.438 14.978 12.5 15.398 12.5 15.832V15.874V15.872L12.494 15.867Z" fill="#958DB1"/>
</svg>
