<svg width="10" height="12" viewBox="0 0 10 12" fill="none" xmlns="http://www.w3.org/2000/svg">
<path d="M5 6C6.5885 6 7.87623 4.65685 7.87623 3C7.87623 1.34315 6.5885 0 5 0C3.4115 0 2.12377 1.34315 2.12377 3C2.12377 4.65685 3.4115 6 5 6Z" fill="#FFB800"/>
<path d="M0.209635 9.99C0.684933 7.896 2.67888 6.75 4.7433 6.75H5.2567C7.32112 6.75 9.31507 7.89525 9.79037 9.99C9.8824 10.3958 9.95575 10.8203 9.99673 11.2515C10.0363 11.664 9.71127 12 9.31435 12H0.685652C0.288732 12 -0.0362822 11.6633 0.00326598 11.2515C0.0442523 10.8203 0.117596 10.3958 0.209635 9.99Z" fill="#FFB800"/>
</svg>
