<svg width="19" height="20" viewBox="0 0 19 20" fill="none" xmlns="http://www.w3.org/2000/svg">
<path d="M18.1977 19.0824C18.8252 18.9486 19.2003 18.2763 18.8877 17.7017C18.1989 16.4373 17.1145 15.3253 15.7278 14.4784C13.9409 13.3874 11.7506 12.7953 9.5 12.7953C7.24828 12.7953 5.05907 13.3862 3.27224 14.4784C1.88551 15.3253 0.801136 16.4373 0.11232 17.7017C-0.200262 18.2763 0.174836 18.9486 0.802273 19.0824C6.53875 20.3059 12.4601 20.3059 18.1966 19.0824" fill="#958DB1"/>
<path d="M9.5 11.6321C12.6388 11.6321 15.1833 9.02814 15.1833 5.81604C15.1833 2.60393 12.6388 0 9.5 0C6.3612 0 3.8167 2.60393 3.8167 5.81604C3.8167 9.02814 6.3612 11.6321 9.5 11.6321Z" fill="#958DB1"/>
</svg>
