<svg width="18" height="18" viewBox="0 0 18 18" fill="none" xmlns="http://www.w3.org/2000/svg">
<path d="M16.3115 4.50688H2.67733C2.51449 4.53839 2.34669 4.5335 2.18596 4.49258C2.02522 4.45166 1.87553 4.37571 1.7476 4.27018C1.61967 4.16465 1.51667 4.03215 1.44597 3.88216C1.37527 3.73217 1.33863 3.56841 1.33867 3.40261V3.38124L15.749 2.8201V1.48193C15.7725 1.28227 15.7503 1.07988 15.6841 0.890057C15.6179 0.70023 15.5094 0.527925 15.3668 0.386151C15.2242 0.244378 15.0513 0.136844 14.861 0.0716687C14.6708 0.00649378 14.4682 -0.0146177 14.2686 0.00992844L1.47366 2.08917C1.04183 2.24852 0.669154 2.53619 0.405711 2.91352C0.142268 3.29085 0.000688052 3.73975 0 4.19989V16.3132C0 16.7606 0.177779 17.1896 0.494226 17.506C0.810674 17.8223 1.23987 18 1.68739 18H16.3115C16.759 18 17.1882 17.8223 17.5047 17.506C17.8211 17.1896 17.9989 16.7606 17.9989 16.3132V6.18129L18 6.13519C18 5.70274 17.8281 5.288 17.5222 4.98221C17.2163 4.67643 16.8015 4.50463 16.3689 4.50463L16.3092 4.50576L16.3115 4.50688ZM14.6241 12.3785C14.1764 12.3784 13.7471 12.2005 13.4307 11.8839C13.1142 11.5674 12.9365 11.1381 12.9367 10.6906C12.9368 10.2431 13.1148 9.81399 13.4315 9.49765C13.7481 9.18132 14.1775 9.00369 14.6252 9.00384C14.8469 9.00391 15.0664 9.04763 15.2711 9.1325C15.4759 9.21736 15.6619 9.34171 15.8186 9.49845C15.9753 9.65518 16.0996 9.84124 16.1843 10.046C16.2691 10.2507 16.3127 10.4702 16.3126 10.6917C16.3125 10.9133 16.2688 11.1327 16.1839 11.3374C16.099 11.5421 15.9746 11.7281 15.8178 11.8847C15.661 12.0413 15.4749 12.1656 15.2701 12.2503C15.0653 12.335 14.8458 12.3786 14.6241 12.3785Z" fill="#958DB1"/>
</svg>
