<svg width="20" height="21" viewBox="0 0 20 21" fill="none" xmlns="http://www.w3.org/2000/svg">
<path d="M0.0811623 10.1755C0.0806895 11.8759 0.527004 13.5363 1.37566 14.9998L0 20.0001L5.14018 18.6583C6.56188 19.4288 8.1548 19.8325 9.77352 19.8326H9.77778C15.1215 19.8326 19.4714 15.5038 19.4737 10.1831C19.4747 7.60481 18.467 5.18038 16.6362 3.35636C14.8057 1.53251 12.3713 0.527544 9.77738 0.526367C4.43304 0.526367 0.0834475 4.85499 0.0812412 10.1755" fill="url(#paint0_linear_284_2291)"/>
<path d="M0.0835938 10.1708C0.0830469 11.9634 0.541406 13.7133 1.41281 15.2558L0 20.5263L5.27898 19.1121C6.73352 19.9224 8.37117 20.3496 10.0376 20.3502H10.0419C15.53 20.3502 19.9977 15.7869 20 10.1789C20.0009 7.46108 18.9659 4.90538 17.0859 2.98284C15.2057 1.06053 12.7057 0.00111753 10.0419 0C4.55281 0 0.0857813 4.5627 0.0835938 10.1708ZM3.22734 14.9902L3.03023 14.6705C2.20164 13.3243 1.7643 11.7687 1.76492 10.1714C1.76672 5.51012 5.47953 1.7178 10.045 1.7178C12.2559 1.71875 14.3337 2.59936 15.8966 4.19711C17.4593 5.79501 18.3192 7.91911 18.3187 10.1783C18.3166 14.8395 14.6037 18.6323 10.0419 18.6323H10.0386C8.5532 18.6315 7.09641 18.224 5.82594 17.4538L5.52359 17.2706L2.39094 18.1097L3.22734 14.9901V14.9902Z" fill="url(#paint1_linear_284_2291)"/>
<path d="M7.41299 6.22916C7.21896 5.81069 7.01477 5.80225 6.83026 5.79491C6.67917 5.7886 6.50645 5.78907 6.3339 5.78907C6.16118 5.78907 5.88055 5.85212 5.64335 6.10346C5.4059 6.35503 4.73682 6.96297 4.73682 8.19944C4.73682 9.43599 5.6649 10.631 5.79427 10.7988C5.92381 10.9663 7.58595 13.585 10.2184 14.5924C12.4061 15.4295 12.8514 15.263 13.3262 15.221C13.8011 15.1792 14.8585 14.6133 15.0743 14.0264C15.2902 13.4396 15.2902 12.9366 15.2254 12.8315C15.1607 12.7268 14.988 12.6639 14.729 12.5383C14.4699 12.4126 13.1966 11.8045 12.9593 11.7207C12.7218 11.6369 12.5492 11.595 12.3765 11.8467C12.2037 12.0979 11.7078 12.6639 11.5566 12.8315C11.4056 12.9995 11.2544 13.0204 10.9955 12.8947C10.7364 12.7686 9.90229 12.5035 8.91273 11.6474C8.14281 10.9813 7.62303 10.1586 7.47194 9.90694C7.32085 9.65569 7.45576 9.51948 7.58562 9.39425C7.70199 9.28164 7.8447 9.10078 7.97432 8.95408C8.10346 8.8073 8.14655 8.70259 8.23291 8.53498C8.31935 8.36721 8.27609 8.22043 8.21145 8.09473C8.14655 7.96902 7.64328 6.72607 7.41299 6.22916Z" fill="white"/>
<defs>
<linearGradient id="paint0_linear_284_2291" x1="973.684" y1="1947.89" x2="973.684" y2="0.526367" gradientUnits="userSpaceOnUse">
<stop stop-color="#1FAF38"/>
<stop offset="1" stop-color="#60D669"/>
</linearGradient>
<linearGradient id="paint1_linear_284_2291" x1="1000" y1="2052.63" x2="1000" y2="0" gradientUnits="userSpaceOnUse">
<stop stop-color="#F9F9F9"/>
<stop offset="1" stop-color="white"/>
</linearGradient>
</defs>
</svg>
