<svg width="27" height="24" viewBox="0 0 27 24" fill="none" xmlns="http://www.w3.org/2000/svg">
<path d="M0 6.4H16.3794V9.6H0V6.4ZM0 3.2H16.3794V0H0V3.2ZM0 16H10.4233V12.8H0V16ZM22.3505 10.992L23.4077 9.856C23.5455 9.70767 23.7091 9.59 23.8892 9.50971C24.0693 9.42942 24.2624 9.38809 24.4575 9.38809C24.6525 9.38809 24.8456 9.42942 25.0257 9.50971C25.2059 9.59 25.3695 9.70767 25.5072 9.856L26.5645 10.992C27.1452 11.616 27.1452 12.624 26.5645 13.248L25.5072 14.384L22.3505 10.992ZM21.2933 12.128L13.4014 20.608V24H16.5581L24.45 15.52L21.2933 12.128Z" fill="#FFB800"/>
</svg>
