<svg xmlns="http://www.w3.org/2000/svg" version="1.1" xmlns:xlink="http://www.w3.org/1999/xlink" xmlns:svgjs="http://svgjs.com/svgjs" width="28" height="25"><svg width="28" height="25" viewBox="0 0 28 25" fill="none" xmlns="http://www.w3.org/2000/svg">
<path d="M24.2451 22H3.75487C3.33797 22 3 22.3 3 22.67V24.33C3 24.7 3.33797 25 3.75487 25H24.2451C24.662 25 25 24.7 25 24.33V22.67C25 22.3 24.662 22 24.2451 22Z" fill="#FFF068"></path>
<path d="M28 11.1903C28 10.8296 27.8464 10.4836 27.5731 10.2285C27.2998 9.97343 26.9291 9.83012 26.5426 9.83012C26.156 9.83012 25.7853 9.97343 25.512 10.2285C25.2387 10.4836 25.0851 10.8296 25.0851 11.1903C25.0851 11.7092 25.4006 12.1548 25.858 12.3842L23.8599 14.3008C23.8296 14.3305 23.7967 14.3575 23.7613 14.3817C23.3647 14.6503 20.8466 16.1972 18.7593 13.6985C17.4247 12.1005 16.0255 10.3487 15.0949 9.17107C14.8619 8.75839 14.6615 8.33034 14.4955 7.89036C16.0086 9.73606 18.7166 9.06258 19.4543 7.80998C20.2811 6.40532 19.754 4.54432 17.4396 3.05339C15.1569 1.58131 14.028 0.0418071 13.999 0.0017665V0V0.000883249V0.00235533C13.969 0.0422488 12.8414 1.58278 10.5589 3.05575C8.24493 4.54873 7.71906 6.4093 8.54731 7.81322C9.28549 9.06567 11.9958 9.73738 13.5072 7.88889C13.3443 8.32262 13.1481 8.74478 12.9199 9.15208C11.9893 10.3297 10.5827 12.0921 9.24069 13.6985C7.15327 16.1972 4.63494 14.6503 4.23872 14.3817C4.20332 14.3575 4.17028 14.3304 4.13998 14.3008L2.14199 12.3842C2.59941 12.1548 2.91488 11.7092 2.91488 11.1903C2.91488 10.8296 2.76132 10.4836 2.488 10.2285C2.21468 9.97343 1.84397 9.83012 1.45744 9.83012C1.0709 9.83012 0.700196 9.97343 0.426874 10.2285C0.153551 10.4836 0 10.8296 0 11.1903C0 11.2286 0.00867522 11.2647 0.0121453 11.3024C-0.00191144 11.3924 0.00188457 11.4841 0.0233442 11.5729L2.05903 19.4224C2.10175 19.587 2.20251 19.7334 2.34514 19.8382C2.48776 19.943 2.66398 19.9999 2.84547 20H25.1544C25.3359 20 25.5121 19.943 25.6548 19.8382C25.7975 19.7335 25.8982 19.587 25.941 19.4224L27.9757 11.5729C27.9973 11.4841 28.0011 11.3924 27.9871 11.3024C27.9913 11.2648 28 11.2287 28 11.1903Z" fill="url(#paint0_linear_117_92)"></path>
<defs>
<linearGradient id="SvgjsLinearGradient1000" x1="13.7433" y1="-3.06635" x2="14.2023" y2="26.1979" gradientUnits="userSpaceOnUse">
<stop stop-color="#FFB800"></stop>
</linearGradient>
</defs>
</svg><style>@media (prefers-color-scheme: light) { :root { filter: none; } }
</style></svg>