<svg width="92" height="34" viewBox="0 0 92 34" fill="none" xmlns="http://www.w3.org/2000/svg">
<path d="M45.4649 10.3815C45.1178 10.3815 44.8299 10.3561 44.6013 10.3053C44.3811 10.2545 44.1991 10.1656 44.0552 10.0386C43.9197 9.91156 43.8223 9.73798 43.7631 9.51784C43.7123 9.2977 43.6869 9.01406 43.6869 8.66692C43.6869 8.31978 43.7123 8.03614 43.7631 7.816C43.8223 7.58739 43.9197 7.40535 44.0552 7.26988C44.1991 7.13441 44.3811 7.04127 44.6013 6.99047C44.8299 6.93967 45.1178 6.91427 45.4649 6.91427C45.8121 6.91427 46.0957 6.93967 46.3158 6.99047C46.5444 7.04127 46.7265 7.13441 46.8619 7.26988C46.9974 7.40535 47.0906 7.58739 47.1414 7.816C47.1922 8.03614 47.2176 8.31978 47.2176 8.66692C47.2176 9.01406 47.1922 9.2977 47.1414 9.51784C47.0906 9.73798 46.9974 9.91156 46.8619 10.0386C46.7265 10.1656 46.5444 10.2545 46.3158 10.3053C46.0957 10.3561 45.8121 10.3815 45.4649 10.3815ZM43.9536 12.6548H46.9763V26.0537H43.9536V12.6548Z" fill="white"/>
<path d="M51.5992 7.9303H58.6987C59.5877 7.9303 60.3455 8.0319 60.972 8.23511C61.5986 8.42985 62.1108 8.73466 62.5088 9.14953C62.9152 9.55595 63.2115 10.0724 63.3978 10.699C63.5841 11.3171 63.6772 12.0494 63.6772 12.8961C63.6772 13.6158 63.601 14.2 63.4486 14.6488C63.3047 15.0975 63.1226 15.4531 62.9025 15.7156C62.6824 15.9781 62.4368 16.1686 62.1659 16.2871C61.8949 16.3972 61.6409 16.4776 61.4039 16.5284V16.5538C61.5563 16.5708 61.7383 16.6089 61.95 16.6681C62.1616 16.7189 62.3818 16.8036 62.6104 16.9222C62.839 17.0322 63.0634 17.1846 63.2835 17.3794C63.5037 17.5656 63.7026 17.8069 63.8804 18.1033C64.0582 18.3996 64.2022 18.7595 64.3122 19.1828C64.4223 19.5977 64.4773 20.0845 64.4773 20.6434C64.4773 21.761 64.3673 22.6712 64.1471 23.3739C63.927 24.0767 63.5926 24.627 63.1438 25.025C62.7035 25.4229 62.1405 25.6939 61.4547 25.8378C60.7773 25.9817 59.9814 26.0537 59.067 26.0537H51.5992V7.9303ZM58.1018 15.5759C58.559 15.5759 58.9485 15.5463 59.2702 15.487C59.5919 15.4277 59.8544 15.3092 60.0576 15.1314C60.2693 14.9451 60.4217 14.6869 60.5148 14.3567C60.608 14.0265 60.6545 13.5904 60.6545 13.0485C60.6545 12.5998 60.5995 12.2273 60.4894 11.9309C60.3794 11.6261 60.2185 11.3848 60.0068 11.207C59.7951 11.0292 59.5327 10.9022 59.2194 10.826C58.9146 10.7498 58.5674 10.7117 58.178 10.7117H54.6473V15.5759H58.1018ZM58.6987 23.2723C59.0882 23.2723 59.4395 23.2427 59.7528 23.1834C60.0746 23.1157 60.3455 22.9887 60.5656 22.8024C60.7942 22.6161 60.9678 22.3579 61.0863 22.0277C61.2134 21.689 61.2769 21.2445 61.2769 20.6942C61.2769 20.1438 61.2218 19.7035 61.1117 19.3733C61.0101 19.0346 60.845 18.7764 60.6164 18.5986C60.3963 18.4208 60.1127 18.3065 59.7655 18.2557C59.4268 18.1964 59.0204 18.1668 58.5463 18.1668H54.6473V23.2723H58.6987ZM67.1444 19.2082C67.1444 17.8112 67.3265 16.6639 67.6905 15.7664C68.0546 14.8689 68.5372 14.1619 69.1384 13.6455C69.7395 13.129 70.4253 12.7734 71.1958 12.5786C71.9663 12.3754 72.758 12.2738 73.5708 12.2738C74.5953 12.2738 75.442 12.4135 76.1109 12.6929C76.7882 12.9723 77.3259 13.3661 77.7238 13.8741C78.1218 14.3736 78.4012 14.9748 78.562 15.6775C78.7229 16.3803 78.8033 17.155 78.8033 18.0017C78.8033 18.3996 78.7864 18.8103 78.7525 19.2336C78.7271 19.657 78.689 20.093 78.6382 20.5418H70.2433C70.2518 21.1429 70.3153 21.6509 70.4338 22.0658C70.5608 22.4722 70.764 22.8067 71.0434 23.0691C71.3313 23.3231 71.7081 23.5094 72.1738 23.6279C72.6479 23.738 73.2364 23.793 73.9391 23.793C74.5318 23.793 75.0864 23.7803 75.6029 23.7549C76.1193 23.7211 76.5723 23.683 76.9618 23.6406C77.419 23.5983 77.8339 23.5433 78.2064 23.4755V25.5838C77.7746 25.7447 77.3047 25.8886 76.7967 26.0156C76.3649 26.1257 75.8611 26.223 75.2853 26.3077C74.7096 26.4009 74.0957 26.4474 73.4438 26.4474C72.4447 26.4474 71.5557 26.3204 70.7767 26.0664C69.9978 25.8209 69.3373 25.4145 68.7955 24.8472C68.2621 24.2714 67.8514 23.5221 67.5635 22.5992C67.2841 21.6763 67.1444 20.546 67.1444 19.2082ZM76.022 18.2811V17.7985C76.022 17.2905 75.9881 16.8502 75.9204 16.4776C75.8611 16.0966 75.7341 15.7834 75.5394 15.5378C75.3446 15.2923 75.0694 15.1102 74.7138 14.9917C74.3582 14.8732 73.8841 14.8139 73.2914 14.8139C72.6564 14.8139 72.1357 14.8901 71.7292 15.0425C71.3313 15.1864 71.018 15.4066 70.7894 15.7029C70.5693 15.9908 70.4169 16.3506 70.3322 16.7824C70.256 17.2143 70.2179 17.7138 70.2179 18.2811H76.022ZM82.7913 15.1568H80.81V12.6548H82.7913V9.82265L85.8012 9.14953V12.6548H89.1795V15.1568H85.8012V22.3579C85.8012 22.6712 85.8224 22.9294 85.8647 23.1326C85.9155 23.3358 86.0002 23.5009 86.1188 23.6279C86.2458 23.7465 86.4193 23.8311 86.6395 23.8819C86.8681 23.9243 87.1602 23.9455 87.5158 23.9455C87.846 23.9455 88.1423 23.9412 88.4048 23.9328C88.6758 23.9158 88.9044 23.8989 89.0906 23.8819C89.3108 23.865 89.5055 23.8438 89.6749 23.8184V25.8251C89.3785 25.9436 89.061 26.0495 88.7223 26.1426C88.426 26.2188 88.0788 26.2866 87.6809 26.3458C87.283 26.4136 86.8469 26.4474 86.3728 26.4474C85.7123 26.4474 85.1535 26.3839 84.6963 26.2569C84.2476 26.1299 83.8793 25.9394 83.5914 25.6854C83.312 25.4229 83.1088 25.097 82.9818 24.7075C82.8548 24.3095 82.7913 23.8481 82.7913 23.3231V15.1568Z" fill="#FFB800"/>
<path d="M24.2451 23H3.75487C3.33797 23 3 23.3 3 23.67V25.33C3 25.7 3.33797 26 3.75487 26H24.2451C24.662 26 25 25.7 25 25.33V23.67C25 23.3 24.662 23 24.2451 23Z" fill="#FFF068"/>
<path d="M28 12.1903C28 11.8296 27.8464 11.4836 27.5731 11.2285C27.2998 10.9734 26.9291 10.8301 26.5426 10.8301C26.156 10.8301 25.7853 10.9734 25.512 11.2285C25.2387 11.4836 25.0851 11.8296 25.0851 12.1903C25.0851 12.7092 25.4006 13.1548 25.858 13.3842L23.8599 15.3008C23.8296 15.3305 23.7967 15.3575 23.7613 15.3817C23.3647 15.6503 20.8466 17.1972 18.7593 14.6985C17.4247 13.1005 16.0255 11.3487 15.0949 10.1711C14.8619 9.75839 14.6615 9.33034 14.4955 8.89036C16.0086 10.7361 18.7166 10.0626 19.4543 8.80998C20.2811 7.40532 19.754 5.54432 17.4396 4.05339C15.1569 2.58131 14.028 1.04181 13.999 1.00177V1V1.00088V1.00236C13.969 1.04225 12.8414 2.58278 10.5589 4.05575C8.24493 5.54873 7.71906 7.4093 8.54731 8.81322C9.28549 10.0657 11.9958 10.7374 13.5072 8.88889C13.3443 9.32262 13.1481 9.74478 12.9199 10.1521C11.9893 11.3297 10.5827 13.0921 9.24069 14.6985C7.15327 17.1972 4.63494 15.6503 4.23872 15.3817C4.20332 15.3575 4.17028 15.3304 4.13998 15.3008L2.14199 13.3842C2.59941 13.1548 2.91488 12.7092 2.91488 12.1903C2.91488 11.8296 2.76132 11.4836 2.488 11.2285C2.21468 10.9734 1.84397 10.8301 1.45744 10.8301C1.0709 10.8301 0.700196 10.9734 0.426874 11.2285C0.153551 11.4836 0 11.8296 0 12.1903C0 12.2286 0.00867522 12.2647 0.0121453 12.3024C-0.00191144 12.3924 0.00188457 12.4841 0.0233442 12.5729L2.05903 20.4224C2.10175 20.587 2.20251 20.7334 2.34514 20.8382C2.48776 20.943 2.66398 20.9999 2.84547 21H25.1544C25.3359 21 25.5121 20.943 25.6548 20.8382C25.7975 20.7335 25.8982 20.587 25.941 20.4224L27.9757 12.5729C27.9973 12.4841 28.0011 12.3924 27.9871 12.3024C27.9913 12.2648 28 12.2287 28 12.1903Z" fill="url(#paint0_linear_2009_5)"/>
<defs>
<linearGradient id="paint0_linear_2009_5" x1="13.7433" y1="-2.06635" x2="14.2023" y2="27.1979" gradientUnits="userSpaceOnUse">
<stop stop-color="#FFB800"/>
</linearGradient>
</defs>
</svg>
