<svg width="14" height="14" viewBox="0 0 14 14" fill="none" xmlns="http://www.w3.org/2000/svg">
<g clip-path="url(#clip0_540_233)">
<path d="M7.00025 14C10.8662 14 14.0002 10.866 14.0002 7C14.0002 3.13401 10.8662 0 7.00025 0C3.13425 0 0.000244141 3.13401 0.000244141 7C0.000244141 10.866 3.13425 14 7.00025 14Z" fill="#F0F0F0"/>
<path d="M3.95654 9.43457L4.56524 13.5645C5.32354 13.8459 6.14377 13.9998 7.00001 13.9998C10.0097 13.9998 12.5756 12.1002 13.5646 9.43457H3.95654Z" fill="black"/>
<path d="M3.95654 4.56523L4.56524 0.43534C5.32354 0.153945 6.14377 0 7.00001 0C10.0097 0 12.5756 1.89962 13.5646 4.56523H3.95654Z" fill="#6DA544"/>
<path d="M0 7.00015C0 10.0099 1.89965 12.5757 4.56523 13.5648V0.435547C1.89965 1.4246 0 3.9904 0 7.00015Z" fill="#A2001D"/>
</g>
<defs>
<clipPath id="clip0_540_233">
<rect width="14" height="14" fill="white"/>
</clipPath>
</defs>
</svg>
