<svg width="14" height="14" viewBox="0 0 14 14" fill="none" xmlns="http://www.w3.org/2000/svg">
<g clip-path="url(#clip0_540_203)">
<path d="M7.00024 14C10.8662 14 14.0002 10.866 14.0002 7C14.0002 3.13401 10.8662 0 7.00024 0C3.13425 0 0.000244141 3.13401 0.000244141 7C0.000244141 10.866 3.13425 14 7.00024 14Z" fill="#F0F0F0"/>
<path d="M1.4471 2.73828C0.897242 3.45368 0.482629 4.27823 0.241211 5.17398H3.8828L1.4471 2.73828Z" fill="#0052B4"/>
<path d="M13.759 5.17395C13.5175 4.27823 13.1029 3.45368 12.5531 2.73828L10.1174 5.17395H13.759Z" fill="#0052B4"/>
<path d="M0.241211 8.82617C0.482656 9.7219 0.89727 10.5464 1.4471 11.2618L3.88272 8.82617H0.241211Z" fill="#0052B4"/>
<path d="M11.2618 1.44712C10.5465 0.897269 9.72193 0.482656 8.82617 0.241211V3.88277L11.2618 1.44712Z" fill="#0052B4"/>
<path d="M2.73828 12.5528C3.45368 13.1027 4.27823 13.5173 5.17395 13.7587V10.1172L2.73828 12.5528Z" fill="#0052B4"/>
<path d="M5.17393 0.241211C4.2782 0.482656 3.45365 0.897269 2.73828 1.4471L5.17393 3.88274V0.241211Z" fill="#0052B4"/>
<path d="M8.82617 13.7587C9.7219 13.5173 10.5465 13.1027 11.2618 12.5528L8.82617 10.1172V13.7587Z" fill="#0052B4"/>
<path d="M10.1174 8.82617L12.5531 11.2618C13.1029 10.5465 13.5175 9.7219 13.759 8.82617H10.1174Z" fill="#0052B4"/>
<path d="M13.941 6.08696H7.91333H7.91331V0.0592539C7.61441 0.0203438 7.30969 0 7.00024 0C6.69074 0 6.38608 0.0203438 6.08721 0.0592539V6.08691V6.08694H0.0594981C0.0205879 6.38583 0.000244141 6.69055 0.000244141 7C0.000244141 7.3095 0.0205879 7.61417 0.0594981 7.91303H6.08715H6.08718V13.9407C6.38608 13.9797 6.69074 14 7.00024 14C7.30969 14 7.61441 13.9797 7.91328 13.9407V7.91309V7.91306H13.941C13.9799 7.61417 14.0002 7.3095 14.0002 7C14.0002 6.69055 13.9799 6.38583 13.941 6.08696Z" fill="#D80027"/>
<path d="M8.82617 8.8262L11.9498 11.9498C12.0935 11.8062 12.2305 11.6561 12.3613 11.5004L9.68701 8.82617H8.82617V8.8262Z" fill="#D80027"/>
<path d="M5.17396 8.82617H5.1739L2.05029 11.9498C2.1939 12.0934 2.34405 12.2305 2.49969 12.3613L5.17396 9.68693V8.82617Z" fill="#D80027"/>
<path d="M5.17402 5.17353V5.17347L2.05038 2.0498C1.90672 2.19341 1.76967 2.34356 1.63892 2.4992L4.31322 5.1735H5.17402V5.17353Z" fill="#D80027"/>
<path d="M8.82617 5.17381L11.9498 2.05011C11.8062 1.90645 11.6561 1.7694 11.5004 1.63867L8.82617 4.31297V5.17381Z" fill="#D80027"/>
</g>
<defs>
<clipPath id="clip0_540_203">
<rect width="14" height="14" fill="white"/>
</clipPath>
</defs>
</svg>
