<svg width="14" height="14" viewBox="0 0 14 14" fill="none" xmlns="http://www.w3.org/2000/svg">
<g clip-path="url(#clip0_540_225)">
<path d="M6.99976 14C10.8658 14 13.9998 10.866 13.9998 7C13.9998 3.13401 10.8658 0 6.99976 0C3.13376 0 -0.000244141 3.13401 -0.000244141 7C-0.000244141 10.866 3.13376 14 6.99976 14Z" fill="#F0F0F0"/>
<path d="M9.63575 5.47779H7.87856L7 3.95605L6.12148 5.47779H4.36426L5.24292 6.99952L4.36426 8.52126H6.12148L7 10.043L7.87856 8.52126H9.63575L8.75709 6.99952L9.63575 5.47779ZM8.0794 6.99952L7.53974 7.93435H6.46035L5.92061 6.99952L6.46032 6.0647H7.53971L8.0794 6.99952ZM7 5.12984L7.20087 5.47776H6.79919L7 5.12984ZM5.38087 6.0647H5.78261L5.58174 6.41262L5.38087 6.0647ZM5.38087 7.93435L5.58177 7.58643L5.78263 7.93435H5.38087ZM7 8.86918L6.79916 8.52126H7.20087L7 8.86918ZM8.61914 7.93435H8.2174L8.4183 7.58643L8.61914 7.93435ZM8.2174 6.0647H8.61914L8.41827 6.41262L8.2174 6.0647Z" fill="#0052B4"/>
<path d="M11.3573 1.52148H2.64251C2.00368 2.0303 1.45582 2.64832 1.02734 3.34758H12.9725C12.544 2.64835 11.9962 2.0303 11.3573 1.52148Z" fill="#0052B4"/>
<path d="M2.64251 12.4784H11.3573C11.9962 11.9696 12.544 11.3516 12.9725 10.6523H1.02734C1.45585 11.3516 2.00371 11.9696 2.64251 12.4784Z" fill="#0052B4"/>
</g>
<defs>
<clipPath id="clip0_540_225">
<rect width="14" height="14" fill="white"/>
</clipPath>
</defs>
</svg>
