<svg width="8" height="5" viewBox="0 0 8 5" fill="none" xmlns="http://www.w3.org/2000/svg">
<path d="M3.67907 4.33081L0.0932556 0.567395C0.0333944 0.504601 7.01895e-07 0.421175 7.17064e-07 0.334419C7.32233e-07 0.247663 0.0333945 0.164238 0.0932557 0.101443L0.0973075 0.0973911C0.126327 0.066844 0.161258 0.0425201 0.199974 0.0258985C0.238691 0.00927739 0.280384 0.000705768 0.322518 0.000705775C0.364652 0.000705783 0.406345 0.00927741 0.445062 0.0258985C0.483778 0.0425201 0.518709 0.0668441 0.547728 0.0973912L3.9242 3.64133L7.29932 0.0973924C7.32834 0.0668453 7.36327 0.0425213 7.40198 0.0258998C7.4407 0.00927864 7.48239 0.000707027 7.52453 0.000707035C7.56666 0.000707042 7.60835 0.00927867 7.64707 0.0258998C7.68579 0.0425214 7.72072 0.0668453 7.74974 0.0973925L7.75379 0.101444C7.81365 0.164239 7.84705 0.247665 7.84705 0.33442C7.84705 0.421176 7.81365 0.504603 7.75379 0.567397L4.16798 4.33081C4.13644 4.36391 4.09852 4.39026 4.0565 4.40826C4.01448 4.42626 3.96924 4.43555 3.92352 4.43555C3.87781 4.43555 3.83257 4.42626 3.79055 4.40826C3.74853 4.39026 3.7106 4.36391 3.67907 4.33081Z" fill="#FFB800"/>
</svg>
